/* XPM */
static char * dead_xpm[] = {
"58 58 414 2",
"  	c #7B7B7B",
". 	c #949494",
"+ 	c #B2B2B2",
"@ 	c #BDBDBD",
"# 	c #7F7F7F",
"$ 	c #8A8A8A",
"% 	c #939393",
"& 	c #8D8D8D",
"* 	c #888888",
"= 	c #979797",
"- 	c #AAAAAA",
"; 	c #B1B1B1",
"> 	c #B0B0B0",
", 	c #D0D0D0",
"' 	c #CECECE",
") 	c #BBBBBB",
"! 	c #A8A8A8",
"~ 	c #9E9E9E",
"{ 	c #969696",
"] 	c #929292",
"^ 	c #CDCDCD",
"/ 	c #FFFFFF",
"( 	c #FEFEFE",
"_ 	c #FBFBFB",
": 	c #F6F6F6",
"< 	c #D9D9D9",
"[ 	c #A0A0A0",
"} 	c #858585",
"| 	c #FAFAFA",
"1 	c #EAEAEA",
"2 	c #D8D8D8",
"3 	c #9D9D9D",
"4 	c #808080",
"5 	c #F5F5F5",
"6 	c #BABABA",
"7 	c #F2F2F2",
"8 	c #E5E5E5",
"9 	c #E0E0E0",
"0 	c #D7D7D7",
"a 	c #7D7D7D",
"b 	c #E6E6E6",
"c 	c #CACACA",
"d 	c #C2C2C2",
"e 	c #B9B9B9",
"f 	c #9B9B9B",
"g 	c #7E7E7E",
"h 	c #E4E4E4",
"i 	c #C6C6C6",
"j 	c #B4B4B4",
"k 	c #A3A3A3",
"l 	c #868686",
"m 	c #B6B6B6",
"n 	c #B8B8B8",
"o 	c #797979",
"p 	c #3A3A3A",
"q 	c #303030",
"r 	c #6A6A6A",
"s 	c #A2A2A2",
"t 	c #939392",
"u 	c #676754",
"v 	c #3B3A17",
"w 	c #34330D",
"x 	c #5D5C46",
"y 	c #898984",
"z 	c #9F9F9F",
"A 	c #676767",
"B 	c #414141",
"C 	c #454540",
"D 	c #727236",
"E 	c #A09F2C",
"F 	c #A7A62A",
"G 	c #7D7C34",
"H 	c #4F4F3E",
"I 	c #5B5B5B",
"J 	c #ACACAC",
"K 	c #868681",
"L 	c #484839",
"M 	c #1D1D07",
"N 	c #252509",
"O 	c #8A8923",
"P 	c #EEED3C",
"Q 	c #FEFD40",
"R 	c #A1A029",
"S 	c #3C3B0F",
"T 	c #3A3928",
"U 	c #787870",
"V 	c #B3B3B3",
"W 	c #989898",
"X 	c #686868",
"Y 	c #616046",
"Z 	c #7D7D32",
"` 	c #919024",
" .	c #959425",
"..	c #C6C532",
"+.	c #F6F53E",
"@.	c #D1D035",
"#.	c #A09F28",
"$.	c #84832E",
"%.	c #676742",
"&.	c #5C5C5C",
"*.	c #7B7B79",
"=.	c #2C2C27",
"-.	c #434311",
";.	c #B2B12D",
">.	c #CBCA33",
",.	c #5C5C17",
"'.	c #191914",
").	c #686866",
"!.	c #BCBCBC",
"~.	c #6B6B6B",
"{.	c #6A6A4B",
"].	c #76752D",
"^.	c #9B9A27",
"/.	c #D6D536",
"(.	c #E3E239",
"_.	c #A8A72A",
":.	c #787826",
"<.	c #6D6D44",
"[.	c #616161",
"}.	c #8B8B8B",
"|.	c #6D6D6D",
"1.	c #1E1E1E",
"2.	c #5A591C",
"3.	c #BFBF32",
"4.	c #F2F13D",
"5.	c #F9F83F",
"6.	c #FBFA3F",
"7.	c #F4F33D",
"8.	c #D7D637",
"9.	c #717121",
"0.	c #0C0C0C",
"a.	c #ABABAB",
"b.	c #B5B5B5",
"c.	c #727272",
"d.	c #6C6C4A",
"e.	c #666522",
"f.	c #999827",
"g.	c #DEDD38",
"h.	c #E6E53A",
"i.	c #B9B82F",
"j.	c #A7A72A",
"k.	c #D5D436",
"l.	c #FAF93F",
"m.	c #CDCD34",
"n.	c #C0BF30",
"o.	c #EDEC3C",
"p.	c #F7F63E",
"q.	c #CACA33",
"r.	c #9D9D28",
"s.	c #C3C331",
"t.	c #F0EF3D",
"u.	c #DFDE38",
"v.	c #AFAE2C",
"w.	c #DCDB37",
"x.	c #A9A92B",
"y.	c #646419",
"z.	c #6B6A41",
"A.	c #717169",
"B.	c #8C8C8C",
"C.	c #AEAEAE",
"D.	c #ADADAD",
"E.	c #646464",
"F.	c #1C1C1C",
"G.	c #717028",
"H.	c #C5C434",
"I.	c #E5E43A",
"J.	c #CAC933",
"K.	c #68681A",
"L.	c #A4A429",
"M.	c #959526",
"N.	c #35350D",
"O.	c #78771E",
"P.	c #D9D837",
"Q.	c #EFEE3C",
"R.	c #8E8E24",
"S.	c #2D2D0B",
"T.	c #7F7F20",
"U.	c #E0E039",
"V.	c #BBBB2F",
"W.	c #5A5A17",
"X.	c #525215",
"Y.	c #B4B32D",
"Z.	c #E9E83B",
"`.	c #D8D736",
" +	c #84832B",
".+	c #2F2F1F",
"++	c #535353",
"@+	c #9C9C9C",
"#+	c #555555",
"$+	c #000000",
"%+	c #72721D",
"&+	c #E4E339",
"*+	c #D3D335",
"=+	c #858421",
"-+	c #5C5B17",
";+	c #878722",
">+	c #ACAC2B",
",+	c #818020",
"'+	c #555515",
")+	c #919025",
"!+	c #E0DF38",
"~+	c #A3A329",
"{+	c #555415",
"]+	c #77761E",
"^+	c #A2A229",
"/+	c #929125",
"(+	c #66661A",
"_+	c #73721D",
":+	c #C2C131",
"<+	c #8C8B23",
"[+	c #1A1A06",
"}+	c #D4D335",
"|+	c #AFAF2C",
"1+	c #74731D",
"2+	c #414110",
"3+	c #7D7C1F",
"4+	c #B8B72E",
"5+	c #D8D837",
"6+	c #C4C331",
"7+	c #8A8A23",
"8+	c #4F4E14",
"9+	c #66651A",
"0+	c #A1A129",
"a+	c #CECD34",
"b+	c #8A8A86",
"c+	c #61614A",
"d+	c #38370E",
"e+	c #EAE93B",
"f+	c #F1F03D",
"g+	c #B3B22D",
"h+	c #3D3C0F",
"i+	c #BCBC2F",
"j+	c #DBDB37",
"k+	c #F4F33E",
"l+	c #E1E039",
"m+	c #C8C832",
"n+	c #8B8B23",
"o+	c #4B4B13",
"p+	c #646319",
"q+	c #A4A329",
"r+	c #D2D135",
"s+	c #EBEA3B",
"t+	c #A5A42A",
"u+	c #4C4B13",
"v+	c #57573C",
"w+	c #818178",
"x+	c #696969",
"y+	c #48483B",
"z+	c #7A7A33",
"A+	c #ACAB2B",
"B+	c #D4D436",
"C+	c #5F5E18",
"D+	c #878622",
"E+	c #A9A82A",
"F+	c #808020",
"G+	c #595816",
"H+	c #939325",
"I+	c #A5A52A",
"J+	c #585816",
"K+	c #77771E",
"L+	c #9F9F28",
"M+	c #909024",
"N+	c #76751E",
"O+	c #C3C231",
"P+	c #868531",
"Q+	c #54543A",
"R+	c #C9C833",
"S+	c #404010",
"T+	c #A3A229",
"U+	c #31310C",
"V+	c #75751E",
"W+	c #8C8C23",
"X+	c #29290A",
"Y+	c #BAB92F",
"Z+	c #575716",
"`+	c #4F4F14",
" @	c #B2B22D",
".@	c #35340D",
"+@	c #2E2E2E",
"@@	c #838383",
"#@	c #B5B52E",
"$@	c #D2D235",
"%@	c #9C9C27",
"&@	c #BDBC30",
"*@	c #ECEB3B",
"=@	c #C8C732",
"-@	c #999826",
";@	c #C0C030",
">@	c #F0EF3C",
",@	c #AEAE2C",
"'@	c #ABAA2B",
")@	c #DAD937",
"!@	c #B1B12D",
"~@	c #F3F23D",
"{@	c #9E9D28",
"]@	c #464512",
"^@	c #5F5F5F",
"/@	c #3C3C2D",
"(@	c #7F7E2F",
"_@	c #C1C131",
":@	c #DDDC38",
"<@	c #F8F73E",
"[@	c #DBDA37",
"}@	c #818121",
"|@	c #464612",
"1@	c #8E8E2F",
"2@	c #4C4C2E",
"3@	c #505050",
"4@	c #919191",
"5@	c #7D7D77",
"6@	c #666646",
"7@	c #4E4E14",
"8@	c #ECEB3C",
"9@	c #979726",
"0@	c #525115",
"a@	c #7D7D20",
"b@	c #A9A82B",
"c@	c #B0AF2C",
"d@	c #606018",
"e@	c #60603A",
"f@	c #78786C",
"g@	c #F5F43E",
"h@	c #706F1C",
"i@	c #5D5C17",
"j@	c #ADAC2C",
"k@	c #949325",
"l@	c #6C6B1B",
"m@	c #848321",
"n@	c #898923",
"o@	c #71711D",
"p@	c #848421",
"q@	c #C4C431",
"r@	c #595917",
"s@	c #30300C",
"t@	c #9B9B27",
"u@	c #B5B42D",
"v@	c #4A4913",
"w@	c #FCFB40",
"x@	c #888826",
"y@	c #232311",
"z@	c #494949",
"A@	c #B6B52E",
"B@	c #7B7B1F",
"C@	c #706F3D",
"D@	c #64645B",
"E@	c #818181",
"F@	c #FCFB3F",
"G@	c #F8F83F",
"H@	c #070702",
"I@	c #565654",
"J@	c #A6A6A5",
"K@	c #ABAB2B",
"L@	c #DCDB38",
"M@	c #E7E63A",
"N@	c #B6B62E",
"O@	c #8A8A29",
"P@	c #6E6E3D",
"Q@	c #515151",
"R@	c #828282",
"S@	c #535315",
"T@	c #B8B82E",
"U@	c #CFCF34",
"V@	c #6A6A1B",
"W@	c #2B2B18",
"X@	c #696960",
"Y@	c #5A593B",
"Z@	c #878731",
"`@	c #AAA92B",
" #	c #92912F",
".#	c #646439",
"+#	c #4E4E4E",
"@#	c #7F7F75",
"##	c #525237",
"$#	c #3B3A0F",
"%#	c #969526",
"&#	c #AAAA2B",
"*#	c #484829",
"=#	c #757567",
"-#	c #353530",
";#	c #757430",
">#	c #B4B330",
",#	c #BEBD30",
"'#	c #838230",
")#	c #434330",
"!#	c #4D4D4D",
"~#	c #848482",
"{#	c #69694E",
"]#	c #4E4D1B",
"^#	c #494912",
"/#	c #636242",
"(#	c #7E7E77",
"_#	c #B7B7B7",
":#	c #717171",
"<#	c #2B2B2B",
"[#	c #202020",
"}#	c #A7A7A7",
"|#	c #9A9A9A",
"1#	c #7A7A7A",
"2#	c #757575",
"3#	c #FCFCFC",
"4#	c #DFDFDF",
"5#	c #C1C1C1",
"6#	c #FDFDFD",
"7#	c #EDEDED",
"8#	c #DDDDDD",
"9#	c #C0C0C0",
"0#	c #959595",
"a#	c #7C7C7C",
"b#	c #BFBFBF",
"c#	c #909090",
"d#	c #878787",
"e#	c #A1A1A1",
"f#	c #848484",
"g#	c #8F8F8F",
"                                                                                                              . + @ ",
"  # $ % % % % % % % % % % % % % % % % % % % % % % % % % % % % % % % % % % % % % % % % % % % % % % % % % % & * = - ; ",
"  $ > , , , , , , , , , , , , , , , , , , , , , , , , , , , , , , , , , , , , , , , , , , , , , , , , , ' ) ! ~ { % ",
"  ] ^ / / / / / / / / / / / / / / / / / / / / / / / / / / / / / / / / / / / / / / / / / / / / / / / ( _ : < ) [ }   ",
"  ] ^ / / / / / / / / / / / / / / / / / / / / / / / / / / / / / / / / / / / / / / / / / / / / / / / | 1 2 ) 3 & 4   ",
"  ] ^ / / / / / ( ( ( ( ( ( ( ( ( ( ( ( ( ( ( ( ( ( ( ( ( ( ( ( ( ( ( ( ( ( ( ( ( ( ( ( ( ( ( ( ( ( 5 2 6 3 4       ",
"  ] ^ / / / 7 8 9 9 9 9 9 9 9 9 9 9 9 9 9 9 9 9 9 9 9 9 9 9 9 9 9 9 9 9 9 9 9 9 9 9 9 9 9 9 9 9 9 9 0 6 3 & a       ",
"  ] ^ / / / b c d d d d d d d d d d d d d d d d d d d d d d d d d d d d d d d d d d d d d d d d d d e f 4 g         ",
"  ] ^ / / / h i @ @ @ @ @ @ @ @ @ @ @ @ @ @ @ @ @ @ @ @ @ @ @ @ @ @ @ @ @ @ @ @ @ @ @ @ @ @ @ @ @ @ j {             ",
"  ] ^ / / / h i @ @ @ @ @ @ @ @ @ @ @ @ @ @ @ @ @ @ @ @ @ @ @ @ @ @ @ @ @ @ @ @ @ @ @ @ @ @ @ @ @ @ j {             ",
"  ] ^ / / / h i @ @ @ @ @ @ @ @ @ @ @ @ @ @ @ ) k $ l l l l l l l l l 3 m @ @ @ @ @ @ @ @ @ @ @ @ @ j {             ",
"  ] ^ / / / h i @ @ @ @ @ @ @ @ @ @ @ @ @ @ @ n o p q q q q q q q q q r - @ @ @ @ @ @ @ @ @ @ @ @ @ j {             ",
"  ] ^ / / / h i @ @ @ @ @ @ @ @ @ @ @ j s = = t u v w w w w w w w w w x y = = z > @ @ @ @ @ @ @ @ @ j {             ",
"  ] ^ / / / h i @ @ @ @ @ @ @ @ @ @ @ z A B B C D E F F F F F F F F F G H B B I ] @ @ @ @ @ @ @ @ @ j {             ",
"  ] ^ / / / h i @ @ @ @ @ @ @ @ @ m J K L M M N O P Q Q Q Q Q Q Q Q Q R S M M T U - V @ @ @ @ @ @ @ j {             ",
"  ] ^ / / / h i @ @ @ @ @ @ @ @ @ W X Y Z ` `  ...+.Q Q Q Q Q Q Q Q Q @.#.` ` $.%.&.& @ @ @ @ @ @ @ j {             ",
"  ] ^ / / / h i @ @ @ @ @ @ @ ) n *.=.-.;.Q Q Q Q Q Q Q Q Q Q Q Q Q Q Q Q Q Q >.,.'.).n 6 !.@ @ @ @ j {             ",
"  ] ^ / / / h i @ @ @ @ @ @ @ . ~.{.].^./.Q Q Q Q Q Q Q Q Q Q Q Q Q Q Q Q Q Q (._.:.<.[.}.j @ @ @ @ j {             ",
"  ] ^ / / / h i @ @ @ @ @ @ @ |.1.2.3.4.5.Q Q Q Q Q Q Q Q Q Q Q Q Q Q Q Q Q Q 6.7.8.9.0.I a.@ @ @ @ j {             ",
"  ] ^ / / / h i @ @ @ @ b.. c.d.e.f.g.h.i.j.k.l.m.R n.o.Q Q Q Q p.q.r.s.t.u.;.v.w.P x.y.z.A.B.C.@ @ j {             ",
"  ] ^ / / / h i @ @ @ @ D.E.F.G.H.I.+.J.K.-.L.+.M.N.O.P.Q Q Q Q Q.R.S.T.U.V.W.X.Y.l.Z.`. +.+++@+@ @ j {             ",
"  ] ^ / / / h i @ @ @ @ - #+$+%+&+Q Q *+=+-+;+>+,+'+)+!+Q Q Q Q 4.~+{+]+^+/+(+_+:+Q Q Q <+[+B { @ @ j {             ",
"  ] ^ / / / h i @ @ @ @ - #+$+%+&+Q Q Q.}+|+1+2+3+4+5+7.Q Q Q Q l.u.6+7+8+9+0+a+Z.Q Q Q <+[+B { @ @ j {             ",
"  ] ^ / / / h i @ @ j s b+c+d+` e+Q Q f+`.g+_+h+3+i+j+k+Q Q Q Q l.l+m+n+o+p+q+r+s+Q Q Q t+u+v+w+~ > j {             ",
"  ] ^ / / / h i @ @ k x+y+z+A+@.+.Q Q B+;+C+D+E+F+G+H+U.Q Q Q Q 4.I+J+K+L+M+K.N+O+Q Q Q P.Y.P+Q+&.{ j {             ",
"  ] ^ / / / h i @ @ { B [+<+Q Q Q Q Q R+9+S+T++.H+U+V+`.Q Q Q Q Q.W+X+3+!+Y+Z+`+ @Q Q Q Q Q F .@+@@@j {             ",
"  ] ^ / / / h i @ @ { B [+<+Q Q Q Q Q I.#@~+$@l.>.%@&@*@Q Q Q Q p.=@-@;@>@g.,@'@)@Q Q Q Q Q F .@+@@@j {             ",
"  ] ^ / / / h i @ @ { B [+<+Q Q Q Q Q Q Q Q Q Q Q Q Q Q Q Q Q Q Q Q Q Q Q Q Q Q Q Q Q Q Q Q F .@+@@@j {             ",
"  ] ^ / / / h i @ @ { B [+<+Q Q Q Q Q Q Q Q Q Q Q Q Q Q Q Q Q Q Q Q Q Q Q Q Q Q Q Q Q Q Q Q F .@+@@@j {             ",
"  ] ^ / / / h i @ @ { B [+<+Q Q Q Q Q Q Q Q Q Q Q Q Q Q Q Q Q Q Q Q Q Q Q Q Q Q Q Q Q Q Q Q F .@+@@@j {             ",
"  ] ^ / / / h i @ @ { B [+<+Q Q Q Q Q Q Q Q Q Q Q Q Q Q Q Q Q Q Q Q Q Q Q Q Q Q Q Q Q Q Q Q F .@+@@@j {             ",
"  ] ^ / / / h i @ @ { B [+<+Q Q Q Q Q Q Q Q Q Q Q Q Q Q Q Q Q Q Q Q Q Q Q Q Q Q Q Q Q Q Q Q F .@+@@@j {             ",
"  ] ^ / / / h i @ @ { B [+<+Q Q Q Q Q Q Q Q Q 6./.!@A+A+A+A+A+A+A+A+A+a+~@Q Q Q Q Q Q Q Q Q F .@+@@@j {             ",
"  ] ^ / / / h i @ @ { B [+<+Q Q Q Q Q Q Q Q Q p.{@]@d+d+d+d+d+d+d+d+d+O (.Q Q Q Q Q Q Q Q Q F .@+@@@j {             ",
"  ] ^ / / / h i @ @ z ^@/@(@_@:@<@Q Q Q Q +.[@&@}@|@h+h+h+h+h+h+h+h+h+1+|+}+Q.Q Q Q Q Q (.=@1@2@3@4@j {             ",
"  ] ^ / / / h i @ @ ; = 5@6@7@r.8@Q Q Q Q h.9@0@a@b@c@c@c@c@c@c@c@c@c@;+-+=+*+Q Q Q Q Q v.d@e@f@4@a.j {             ",
"  ] ^ / / / h i @ @ @ @ - #+$+%+&+Q Q g@&+n.h@S.R.Q.Q Q Q Q Q Q Q Q Q L.-.i@j@!+f+Q Q Q <+[+B { @ @ j {             ",
"  ] ^ / / / h i @ @ @ @ - #+$+%+&+Q Q P.k@l@m@r.q.p.Q Q Q Q Q Q Q Q Q k.j.n@o@p@R+Q Q Q <+[+B { @ @ j {             ",
"  ] ^ / / / h i @ @ @ @ a.I 0.9.8.7.6.q@r@s@t@Q Q Q Q Q Q Q Q Q Q Q Q Q Q u@v@2+A+w@g@P x@y@z@W @ @ j {             ",
"  ] ^ / / / h i @ @ @ @ j }.[.<.:._.(.!+b@k@>.Q Q Q Q Q Q Q Q Q Q Q Q Q Q `.R %@}+f+A@B@C@D@E@- @ @ j {             ",
"  ] ^ / / / h i @ @ @ @ !.6 n ).'.,.>.w@5.<@6.Q Q Q Q Q Q Q Q Q Q Q Q Q Q F@5.G@F@I.N+H@I@J@6 !.@ @ j {             ",
"  ] ^ / / / h i @ @ @ @ @ @ @ & &.%.$.K@L@Q Q Q Q Q Q Q Q Q Q Q Q Q Q Q Q Q Q M@N@O@P@Q@R@+ @ @ @ @ j {             ",
"  ] ^ / / / h i @ @ @ @ @ @ @ V - U T S@T@Q Q Q Q Q Q Q Q Q Q Q Q Q Q Q Q Q Q U@V@W@X@! ; ) @ @ @ @ j {             ",
"  ] ^ / / / h i @ @ @ @ @ @ @ @ @ ] I Y@Z@F F `@@.<@Q Q Q Q Q Q Q Q Q )@g+F F  #.#+#} @ @ @ @ @ @ @ j {             ",
"  ] ^ / / / h i @ @ @ @ @ @ @ @ @ > z @###w w $#%#>@Q Q Q Q Q Q Q Q Q &#`+w w *#=#f J @ @ @ @ @ @ @ j {             ",
"  ] ^ / / / h i @ @ @ @ @ @ @ @ @ @ @ f &.q q -#;#>#,#,#,#,#,#,#,#,#,#'#)#q q !#& @ @ @ @ @ @ @ @ @ j {             ",
"  ] ^ / / / h i @ @ @ @ @ @ @ @ @ @ @ > = l l ~#{#]#^#^#^#^#^#^#^#^#^#/#(#l l ] - @ @ @ @ @ @ @ @ @ j {             ",
"  ] ^ / / / h i @ @ @ @ @ @ @ @ @ @ @ @ @ @ @ _#:#<#[#[#[#[#[#[#[#[#[#[.}#@ @ @ @ @ @ @ @ @ @ @ @ @ j {             ",
"  ] ^ / / / h i @ @ @ @ @ @ @ @ @ @ @ @ @ @ @ 6 |#1#2#2#2#2#2#2#2#2#2#% V @ @ @ @ @ @ @ @ @ @ @ @ @ j {             ",
"  ] ^ / 3#| 4#5#n n n n n n n n n n n n n n n n n n n n n n n n n n n n n n n n n n n n n n n n n n > .             ",
"  ] ^ 6#7#8#9#k |#|#|#|#|#|#|#|#|#|#|#|#|#|#|#|#|#|#|#|#|#|#|#|#|#|#|#|#|#|#|#|#|#|#|#|#|#|#|#|#|#|#0#*             ",
"  ] ^ | 8#9#s } a#a#a#a#a#a#a#a#a#a#a#a#a#a#a#a#a#a#a#a#a#a#a#a#a#a#a#a#a#a#a#a#a#a#a#a#a#a#a#a#a#a#                ",
"  & ) 8#b#s c#4                                                                                                     ",
"  d#! b#e#f## a#                                                                                                    ",
"% { ~ s g#a#                                                                                                        ",
"; - = l E@                                                                                                          ",
"@ + .                                                                                                               ",
"@ @ @ @ @ @ @ @ @ @ @ @ @ @ @ @ @ @ @ @ @ @ @ @ @ @ @ @ @ @ @ @ @ @ @ @ @ @ @ @ @ @ @ @ @ @ @ @ @ @ @ @ @ @ @ @ @ @ "};
