/* XPM */
static char * eight_xpm[] = {
"35 35 31 1",
" 	c #7B7B7B",
".	c #7D7D7D",
"+	c #838383",
"@	c #878787",
"#	c #969696",
"$	c #A6A6A6",
"%	c #BDBDBD",
"&	c #BCBCBC",
"*	c #B1B1B1",
"=	c #A3A3A3",
"-	c #9E9E9E",
";	c #A5A5A5",
">	c #898989",
",	c #808080",
"'	c #949494",
")	c #818181",
"!	c #7F7F7F",
"~	c #888888",
"{	c #8F8F8F",
"]	c #868686",
"^	c #9D9D9D",
"/	c #ADADAD",
"(	c #A7A7A7",
"_	c #A2A2A2",
":	c #7C7C7C",
"<	c #B4B4B4",
"[	c #B0B0B0",
"}	c #A4A4A4",
"|	c #939393",
"1	c #8D8D8D",
"2	c #858585",
"                                   ",
" .+@@@@@@@@@@@@@@@@@@@@@@@@@@@@@@@@",
" +#$$$$$$$$$$$$$$$$$$$$$$$$$$$$$$$$",
" @$%%%%%%%%%%%%%%%%%%%%%%%%%%%%%%%%",
" @$%%%%%%%%%%%%%%%%%%%%%%%%%%%%%%%%",
" @$%%%%%%&&&&&&&&&&&&&&&&&%%%%%%%%%",
" @$%%%%%*=---------------=*%%%%%%%%",
" @$%%%%%;>,,,,,,,,,,,,,,,>;%%%%%%%%",
" @$%%%*;')               )';*%%%%%%",
" @$%%&=>).               .)>=&%%%%%",
" @$%%&-,    !~{{{{{{{~!    ,-&%%%%%",
" @$%%&-,    ]^///////^]    ,-&%%%%%",
" @$%%&-,    >(%%%%%%%(>    ,-&%%%%%",
" @$%%&-,    >(%%%%%%%(>    ,-&%%%%%",
" @$%%&_~,:  @_<<<<<<<_@  :,~_&%%%%%",
" @$%%%[}|)  )1#######1)  )|}[%%%%%%",
" @$%%%%%=2               2=%%%%%%%%",
" @$%%%%%=2               2=%%%%%%%%",
" @$%%%%%=2               2=%%%%%%%%",
" @$%%%[}|)  )1#######1)  )|}[%%%%%%",
" @$%%&_~,:  @_<<<<<<<_@  :,~_&%%%%%",
" @$%%&-,    >(%%%%%%%(>    ,-&%%%%%",
" @$%%&-,    >(%%%%%%%(>    ,-&%%%%%",
" @$%%&-,    ]^///////^]    ,-&%%%%%",
" @$%%&-,    !~{{{{{{{~!    ,-&%%%%%",
" @$%%&=>).               .)>=&%%%%%",
" @$%%%*;')               )';*%%%%%%",
" @$%%%%%;>,,,,,,,,,,,,,,,>;%%%%%%%%",
" @$%%%%%*=---------------=*%%%%%%%%",
" @$%%%%%%&&&&&&&&&&&&&&&&&%%%%%%%%%",
" @$%%%%%%%%%%%%%%%%%%%%%%%%%%%%%%%%",
" @$%%%%%%%%%%%%%%%%%%%%%%%%%%%%%%%%",
" @$%%%%%%%%%%%%%%%%%%%%%%%%%%%%%%%%",
" @$%%%%%%%%%%%%%%%%%%%%%%%%%%%%%%%%",
" @$%%%%%%%%%%%%%%%%%%%%%%%%%%%%%%%%"};
