/* XPM */
static char * explode_xpm[] = {
"35 35 195 2",
"  	c #7B7B7B",
". 	c #7F7878",
"+ 	c #8A7071",
"@ 	c #93686A",
"# 	c #897071",
"$ 	c #AE5458",
"% 	c #CF3B41",
"& 	c #916A6C",
"* 	c #CA3E44",
"= 	c #FD1721",
"- 	c #F61620",
"; 	c #EA151F",
"> 	c #E8151E",
", 	c #F31620",
"' 	c #D6131C",
") 	c #970E14",
"! 	c #870C12",
"~ 	c #C6121A",
"{ 	c #B71118",
"] 	c #460609",
"^ 	c #2A0406",
"/ 	c #9A0E14",
"( 	c #E2151D",
"_ 	c #B61118",
": 	c #AC1016",
"< 	c #D7141C",
"[ 	c #F81720",
"} 	c #CC131B",
"| 	c #A10F15",
"1 	c #9B0E14",
"2 	c #700A0F",
"3 	c #2B0406",
"4 	c #1A0203",
"5 	c #5F090C",
"6 	c #C11219",
"7 	c #ED161F",
"8 	c #C21219",
"9 	c #63090D",
"0 	c #4B070A",
"a 	c #AA0F16",
"b 	c #F1161F",
"c 	c #920D13",
"d 	c #330507",
"e 	c #280405",
"f 	c #1D0304",
"g 	c #0B0101",
"h 	c #070101",
"i 	c #180203",
"j 	c #7B0B10",
"k 	c #D9141C",
"l 	c #7D0B10",
"m 	c #5D080C",
"n 	c #8A0D12",
"o 	c #A70F16",
"p 	c #58080C",
"q 	c #0A0101",
"r 	c #000000",
"s 	c #450609",
"t 	c #930D13",
"u 	c #950E13",
"v 	c #68090E",
"w 	c #6A0A0E",
"x 	c #B81118",
"y 	c #EC151F",
"z 	c #D1131B",
"A 	c #3A0508",
"B 	c #1F0304",
"C 	c #030000",
"D 	c #61090D",
"E 	c #9C0E14",
"F 	c #CA121A",
"G 	c #E5151E",
"H 	c #EE161F",
"I 	c #A50F16",
"J 	c #4E070A",
"K 	c #030303",
"L 	c #1B1B1B",
"M 	c #343434",
"N 	c #373737",
"O 	c #282828",
"P 	c #0F0F0F",
"Q 	c #370507",
"R 	c #900D13",
"S 	c #D0131B",
"T 	c #CE131B",
"U 	c #820C11",
"V 	c #200304",
"W 	c #090909",
"X 	c #565656",
"Y 	c #A2A2A2",
"Z 	c #ABABAB",
"` 	c #7C7C7C",
" .	c #303030",
"..	c #170203",
"+.	c #3C0508",
"@.	c #BB1118",
"#.	c #0E0E0E",
"$.	c #808080",
"%.	c #F1F1F1",
"&.	c #FFFFFF",
"*.	c #B8B8B8",
"=.	c #474747",
"-.	c #FC1721",
";.	c #F21620",
">.	c #AF1017",
",.	c #430609",
"'.	c #0D0D0D",
").	c #7A7A7A",
"!.	c #E7E7E7",
"~.	c #F4F4F4",
"{.	c #B0B0B0",
"].	c #444444",
"^.	c #290405",
"/.	c #940D13",
"(.	c #FB1721",
"_.	c #BE1119",
":.	c #850C11",
"<.	c #7E0B10",
"[.	c #5B080C",
"}.	c #230305",
"|.	c #070707",
"1.	c #404040",
"2.	c #797979",
"3.	c #5C5C5C",
"4.	c #232323",
"5.	c #150203",
"6.	c #4D070A",
"7.	c #B01017",
"8.	c #F0161F",
"9.	c #840C11",
"0.	c #080101",
"a.	c #010101",
"b.	c #050505",
"c.	c #0A0A0A",
"d.	c #0B0B0B",
"e.	c #080808",
"f.	c #020000",
"g.	c #690A0E",
"h.	c #D4131C",
"i.	c #F51620",
"j.	c #B31017",
"k.	c #710A0F",
"l.	c #4C070A",
"m.	c #120202",
"n.	c #400608",
"o.	c #A30F15",
"p.	c #E4151E",
"q.	c #DE141D",
"r.	c #DC141D",
"s.	c #9F0E15",
"t.	c #3D0608",
"u.	c #250305",
"v.	c #860C12",
"w.	c #E9151E",
"x.	c #C8121A",
"y.	c #720A0F",
"z.	c #110202",
"A.	c #2C0406",
"B.	c #B21017",
"C.	c #310406",
"D.	c #800C11",
"E.	c #DF141D",
"F.	c #E0141D",
"G.	c #6B0A0E",
"H.	c #140203",
"I.	c #0F0102",
"J.	c #210304",
"K.	c #58080B",
"L.	c #D2131B",
"M.	c #8D0D12",
"N.	c #810C11",
"O.	c #8B0D12",
"P.	c #7C0B10",
"Q.	c #C01119",
"R.	c #BC1118",
"S.	c #53080B",
"T.	c #390507",
"U.	c #0D0102",
"V.	c #050001",
"W.	c #6E0A0E",
"X.	c #D5131C",
"Y.	c #990E14",
"Z.	c #8C0D12",
"`.	c #60090D",
" +	c #160203",
".+	c #51070B",
"++	c #B41017",
"@+	c #FA1721",
"#+	c #F91721",
"$+	c #F91720",
"%+	c #2A0405",
"&+	c #980E14",
"*+	c #750B0F",
"=+	c #BD1119",
"-+	c #DB141D",
"                                                                      ",
". + @ @ @ @ @ @ @ @ @ @ @ @ @ @ @ @ @ @ @ @ @ @ @ @ @ @ @ @ @ @ @ @ @ ",
"# $ % % % % % % % % % % % % % % % % % % % % % % % % % % % % % % % % % ",
"& * = = = = = = = = = = = = = = - ; > , = = = = = = = = = = = = = = = ",
"& * = = = = = = = = = = = = = = ' ) ! ~ = = = = = = = = = = = = = = = ",
"& * = = = = = = = = = = = = = = { ] ^ / = = = = = = = = = = = = = = = ",
"& * = = = = = = = = = = = = = = { ] ^ / = = = = = = = = = = = = = = = ",
"& * = = = = = = = = = = = = = = { ] ^ / = = = = = = = = = = = = = = = ",
"& * = = = = = ( _ : < [ } | 1 1 2 3 4 5 1 1 1 6 7 ( _ : < = = = = = = ",
"& * = = = = = 8 9 0 a b c d e e f g h i e e e j k 8 9 0 a = = = = = = ",
"& * = = = = = } l m n o p q r r r r r r r r r s t u v w x = = = = = = ",
"& * = = = = = y z a 2 A B C r r r r r r r r r i d D E F G = = = = = = ",
"& * = = = = = H ' I J K L M N N O P r r r r r r r Q R S > = = = = = = ",
"& * = = = = = T U s V W X Y Z Z `  .r r r r r r r ..+.2 @.= = = = = = ",
"& * = = = = = { ] r r #.$.%.&.&.*.=.r r r r r r r r r ^ / = = = = = = ",
"& * = = = = = { ] r r #.$.%.&.&.*.=.r r r r r r r r r ^ / = = = = = = ",
"& * -.[ , ;.;.>.,.r r '.).!.~.~.{.].r r r r r r r r r ^./.;.;.;.- (.= ",
"& * - _.:.<.<.[.}.r r |.1.2.$.$.3.4.r r r r r r r r r 5.6.<.<.<.7.> = ",
"& * 8.9.i g g 0.C r r a.b.c.d.d.e.K r r r r r r r r r f.h g g g g.h.= ",
"& * i.j.k.g.g.l.f r r r r r r r r r r r r r r r r r r m.n.g.g.g.o.p.= ",
"& * (.7 q.r.r.s.t.r r r r r r r r r r r r r r r r r r u.v.r.r.r.w.[ = ",
"& * = = = = = { ] r r r r r r r r r r r r r r r r r r ^ / = = = = = = ",
"& * = = = = = { ] r r r r r r r r r r r r r r r r r r ^ / = = = = = = ",
"& * = = = = = x.y.d i r r r r r r r r r r r r r r z.A.m B.= = = = = = ",
"& * = = = = = > ~ t s r r r r r r r r r r r r r r C.D._.E.= = = = = = ",
"& * = = = = = ;.F.x G.u.H.f.r r r r r r r r r I.J.K.I r.H = = = = = = ",
"& * = = = = = L.M.G.:.t J 0.r r r r r r r r r t.N.O.y.P.Q.= = = = = = ",
"& * = = = = = R.S.T.| 8.! B m.m.U.V.C g m.m.m.W.X.R.S.T.| = = = = = = ",
"& * = = = = = r.o Y.T - 6 Z.:.:.`.u. +.+:.:.:.++w.r.o Y.T = = = = = = ",
"& * = = = = = -.@+@+(.= (.#+$+$+++s %+&+$+$+$+(.-.-.@+@+(.= = = = = = ",
"& * = = = = = = = = = = = = = = { ] ^ / = = = = = = = = = = = = = = = ",
"& * = = = = = = = = = = = = = = { ] ^ / = = = = = = = = = = = = = = = ",
"& * = = = = = = = = = = = = = = S ! *+=+= = = = = = = = = = = = = = = ",
"& * = = = = = = = = = = = = = = 8.-+' ; = = = = = = = = = = = = = = = ",
"& * = = = = = = = = = = = = = = = = = = = = = = = = = = = = = = = = = "};
