/* XPM */
static char * five_xpm[] = {
"35 35 58 1",
" 	c #7B7B7B",
".	c #7D7D7D",
"+	c #838383",
"@	c #878787",
"#	c #969696",
"$	c #A6A6A6",
"%	c #BDBDBD",
"&	c #BDBCBC",
"*	c #BCBABA",
"=	c #AE9495",
"-	c #A06D6E",
";	c #9D6768",
">	c #831F22",
",	c #7F1317",
"'	c #7A060A",
")	c #7E1216",
"!	c #882B2E",
"~	c #8E3D40",
"{	c #914649",
"]	c #A78182",
"^	c #BCBBBB",
"/	c #852427",
"(	c #9C6365",
"_	c #AD9192",
":	c #B5A8A9",
"<	c #882D30",
"[	c #87282B",
"}	c #A17173",
"|	c #B4A5A6",
"1	c #B6A9AA",
"2	c #BAB4B4",
"3	c #80161A",
"4	c #8D393C",
"5	c #965254",
"6	c #AE9494",
"7	c #842125",
"8	c #BAB6B6",
"9	c #BCB9B9",
"0	c #7F1418",
"a	c #8F3E41",
"b	c #9E686A",
"c	c #AD9293",
"d	c #BCBCBC",
"e	c #7A070B",
"f	c #7C0B0F",
"g	c #811A1E",
"h	c #9F6A6C",
"i	c #AA8A8B",
"j	c #98595B",
"k	c #B9B2B2",
"l	c #B5A7A8",
"m	c #7C0A0E",
"n	c #80181B",
"o	c #882D31",
"p	c #A27476",
"q	c #934B4D",
"r	c #A57B7D",
"s	c #B19C9C",
"                                   ",
" .+@@@@@@@@@@@@@@@@@@@@@@@@@@@@@@@@",
" +#$$$$$$$$$$$$$$$$$$$$$$$$$$$$$$$$",
" @$%%%%%%%%%%%%%%%%%%%%%%%%%%%%%%%%",
" @$%%%%%%%%%%%%%%%%%%%%%%%%%%%%%%%%",
" @$%%%&*********************&%%%%%%",
" @$%%&=-;;;;;;;;;;;;;;;;;;;-=&%%%%%",
" @$%%*->,,,,,,,,,,,,,,,,,,,>-*%%%%%",
" @$%%*;,''''''''''''''''''',;*%%%%%",
" @$%%*;,''''''''''''''''''',;*%%%%%",
" @$%%*;,'''')!~~~~~~~~~~~~~{]^%%%%%",
" @$%%*;,''''/(_____________=:&%%%%%",
" @$%%*;,''''<]%%%%%%%%%%%%%%%%%%%%%",
" @$%%*;,''''<]%%%%%%%%%%%%%%%%%%%%%",
" @$%%*;,''''[}|||||||||||12%%%%%%%%",
" @$%%*;,''''3455555555555(6%%%%%%%%",
" @$%%*;,'''''''''''''''''7}89%%%%%%",
" @$%%*;,'''''''''''''''''0abcd%%%%%",
" @$%%*;,'''''''''''''''''efgh*%%%%%",
" @$%%^ij555555555555543'''',;*%%%%%",
" @$%%%kl|||||||||||||}['''',;*%%%%%",
" @$%%%%%%%%%%%%%%%%%%]<'''',;*%%%%%",
" @$%%%%%%%%%%%%%%%%%%]<'''',;*%%%%%",
" @$%%&:=_____________(/'''',;*%%%%%",
" @$%%^]{~~~~~~~~~~~~~!)'''',;*%%%%%",
" @$%%*;,'''''''''''''''''mnop^%%%%%",
" @$%%*;,'''''''''''''''''nqrs&%%%%%",
" @$%%*->,,,,,,,,,,,,,,,,,or%%%%%%%%",
" @$%%&=-;;;;;;;;;;;;;;;;;ps%%%%%%%%",
" @$%%%&******************^&%%%%%%%%",
" @$%%%%%%%%%%%%%%%%%%%%%%%%%%%%%%%%",
" @$%%%%%%%%%%%%%%%%%%%%%%%%%%%%%%%%",
" @$%%%%%%%%%%%%%%%%%%%%%%%%%%%%%%%%",
" @$%%%%%%%%%%%%%%%%%%%%%%%%%%%%%%%%",
" @$%%%%%%%%%%%%%%%%%%%%%%%%%%%%%%%%"};
