/* XPM */
static char * flag_xpm[] = {
"35 35 139 2",
"  	c #FFFFFF",
". 	c #E8E8E8",
"+ 	c #C9C9C9",
"@ 	c #BDBDBD",
"# 	c #FAFAFA",
"$ 	c #F5F5F5",
"% 	c #DCDCDC",
"& 	c #BEBEBE",
"* 	c #B2B2B2",
"= 	c #EDEDED",
"- 	c #DBDBDB",
"; 	c #BFBFBF",
"> 	c #A1A1A1",
", 	c #959595",
"' 	c #FDFDFD",
") 	c #FBFBFB",
"! 	c #DEDEDE",
"~ 	c #C0C0C0",
"{ 	c #A3A3A3",
"] 	c #878787",
"^ 	c #7B7B7B",
"/ 	c #FCFCFC",
"( 	c #C1C1C1",
"_ 	c #909090",
": 	c #818181",
"< 	c #F9F9F9",
"[ 	c #858585",
"} 	c #7D7D7D",
"| 	c #7C7C7C",
"1 	c #F8F8F8",
"2 	c #DADADA",
"3 	c #C0B5B5",
"4 	c #CC9799",
"5 	c #D67C80",
"6 	c #A0A0A0",
"7 	c #828282",
"8 	c #C4ABAC",
"9 	c #DC6C71",
"0 	c #F2333B",
"a 	c #C2AFB0",
"b 	c #CA9A9C",
"c 	c #CF8F92",
"d 	c #D57F83",
"e 	c #EA4950",
"f 	c #FD1721",
"g 	c #E25C62",
"h 	c #C5A8A9",
"i 	c #CB999B",
"j 	c #E06268",
"k 	c #EB454C",
"l 	c #EE3F47",
"m 	c #F62A33",
"n 	c #C1B2B3",
"o 	c #C6A5A7",
"p 	c #D8787C",
"q 	c #F03840",
"r 	c #CC9698",
"s 	c #DE686D",
"t 	c #EC444C",
"u 	c #F72730",
"v 	c #D48084",
"w 	c #F03941",
"x 	c #FB1D27",
"y 	c #FC1923",
"z 	c #C99D9F",
"A 	c #D8777B",
"B 	c #E75158",
"C 	c #F52B34",
"D 	c #BEB9BA",
"E 	c #C0B5B6",
"F 	c #D38588",
"G 	c #EE3D45",
"H 	c #C99FA0",
"I 	c #DB7075",
"J 	c #E4585E",
"K 	c #E74F56",
"L 	c #F3323A",
"M 	c #C8A1A3",
"N 	c #E75057",
"O 	c #C3AEAE",
"P 	c #E9434A",
"Q 	c #D12B32",
"R 	c #B9131A",
"S 	c #B9585C",
"T 	c #BCA7A8",
"U 	c #BFB7B7",
"V 	c #C7A2A4",
"W 	c #C9898C",
"X 	c #8A4B4D",
"Y 	c #4C0C0F",
"Z 	c #775254",
"` 	c #AEA5A6",
" .	c #B5B5B5",
"..	c #5E5E5E",
"+.	c #080808",
"@.	c #4E4E4E",
"#.	c #A5A5A5",
"$.	c #BBBBBB",
"%.	c #B6B6B6",
"&.	c #B3B3B3",
"*.	c #ABABAB",
"=.	c #595959",
"-.	c #4A4A4A",
";.	c #9C9C9C",
">.	c #A9A9A9",
",.	c #7E7E7E",
"'.	c #5A5A5A",
").	c #2F2F2F",
"!.	c #040404",
"~.	c #272727",
"{.	c #525252",
"].	c #979797",
"^.	c #454545",
"/.	c #0A0A0A",
"(.	c #050505",
"_.	c #000000",
":.	c #090909",
"<.	c #7F7F7F",
"[.	c #737373",
"}.	c #262626",
"|.	c #808080",
"1.	c #383838",
"2.	c #202020",
"3.	c #191919",
"4.	c #747474",
"5.	c #1E1E1E",
"6.	c #FEFEFE",
"7.	c #D7D7D7",
"8.	c #B9B9B9",
"9.	c #9E9E9E",
"0.	c #EAEAEA",
"a.	c #8D8D8D",
"b.	c #F3F3F3",
"c.	c #BABABA",
"d.	c #E5E5E5",
"e.	c #D9D9D9",
"f.	c #9F9F9F",
"g.	c #C8C8C8",
"h.	c #BCBCBC",
"                                                                . + @ ",
"                                                            # $ % & * ",
"                                                            = - ; > , ",
"        ' ) ) ) ) ) ) ) ) ) ) ) ) ) ) ) ) ) ) ) ) ) ) ) ) ) ! ~ { ] ^ ",
"      / = ! ! ! ! ! ! ! ! ! ! ! ! ! ! ! ! ! ! ! ! ! ! ! ! ! ( { _ : ^ ",
"      < % ( ( ( ( ( ( ( ( ( ( ( ( ( ( ( ( ( ( ( ( ( ( ( ( ( { [ } | ^ ",
"      1 2 @ @ @ @ @ @ @ @ @ 3 4 5 5 5 4 3 @ @ @ @ @ @ @ @ @ 6 7 ^ ^ ^ ",
"      1 2 @ @ @ @ @ @ @ @ @ 8 9 0 0 0 9 8 @ @ @ @ @ @ @ @ @ 6 7 ^ ^ ^ ",
"      1 2 @ @ @ @ @ a b c c d e f f f g h @ @ @ @ @ @ @ @ @ 6 7 ^ ^ ^ ",
"      1 2 @ @ @ @ @ i j k k l m f f f g h @ @ @ @ @ @ @ @ @ 6 7 ^ ^ ^ ",
"      1 2 @ @ @ n o p q f f f f f f f g h @ @ @ @ @ @ @ @ @ 6 7 ^ ^ ^ ",
"      1 2 @ @ @ r s t u f f f f f f f g h @ @ @ @ @ @ @ @ @ 6 7 ^ ^ ^ ",
"      1 2 @ @ @ v w x y f f f f f f f g h @ @ @ @ @ @ @ @ @ 6 7 ^ ^ ^ ",
"      1 2 @ @ @ z A B C f f f f f f f g h @ @ @ @ @ @ @ @ @ 6 7 ^ ^ ^ ",
"      1 2 @ @ @ D E F G f f f f f f f g h @ @ @ @ @ @ @ @ @ 6 7 ^ ^ ^ ",
"      1 2 @ @ @ @ @ H I J J K L f f f g h @ @ @ @ @ @ @ @ @ 6 7 ^ ^ ^ ",
"      1 2 @ @ @ @ @ 3 h M M c N f f f g h @ @ @ @ @ @ @ @ @ 6 7 ^ ^ ^ ",
"      1 2 @ @ @ @ @ @ @ @ @ O A P Q R S T @ @ @ @ @ @ @ @ @ 6 7 ^ ^ ^ ",
"      1 2 @ @ @ @ @ @ @ @ @ U V W X Y Z ` @ @ @ @ @ @ @ @ @ 6 7 ^ ^ ^ ",
"      1 2 @ @ @ @ @ @ @ @ @ @ @  ...+.@.#.@ @ @ @ @ @ @ @ @ 6 7 ^ ^ ^ ",
"      1 2 @ @ @ @ @ @ @ @ @ @ @  ...+.@.#.@ @ @ @ @ @ @ @ @ 6 7 ^ ^ ^ ",
"      1 2 @ @ @ @ @ @ @ $.%.&.&.*.=.+.-.;.%.$.@ @ @ @ @ @ @ 6 7 ^ ^ ^ ",
"      1 2 @ @ @ @ @ @ @ >.,.....'.).!.~.{.,.>.@ @ @ @ @ @ @ 6 7 ^ ^ ^ ",
"      1 2 @ @ @ @ @ @ @ ].^./././.(._.!.:.^.].@ @ @ @ @ @ @ 6 7 ^ ^ ^ ",
"      1 2 @ @ @ 6 <.[.[.'.}._._._._._._._.}.'.[.[.<.6 @ @ @ 6 7 ^ ^ ^ ",
"      1 2 @ @ @ |.1.2.2.3./._._._._._._._./.3.2.2.1.|.@ @ @ 6 7 ^ ^ ^ ",
"      1 2 @ @ @ 4.5._._._._._._._._._._._._._._._.5.4.@ @ @ 6 7 ^ ^ ^ ",
"      1 2 @ @ @ 4.5._._._._._._._._._._._._._._._.5.4.@ @ @ 6 7 ^ ^ ^ ",
"      1 2 @ @ @ |.1.2.2.2.2.2.2.2.2.2.2.2.2.2.2.2.1.|.@ @ @ 6 7 ^ ^ ^ ",
"      1 2 @ @ @ 6 <.[.[.[.[.[.[.[.[.[.[.[.[.[.[.[.<.6 @ @ @ 6 7 ^ ^ ^ ",
"  6.' $ 7.8.8.8.8.8.8.8.8.8.8.8.8.8.8.8.8.8.8.8.8.8.8.8.8.8.9.: ^ ^ ^ ",
"  < 0.7.8.;.;.;.;.;.;.;.;.;.;.;.;.;.;.;.;.;.;.;.;.;.;.;.;.;.a.,.^ ^ ^ ",
"  b.7.c.;.<.<.<.<.<.<.<.<.<.<.<.<.<.<.<.<.<.<.<.<.<.<.<.<.<.} ^ ^ ^ ^ ",
"d.e.$.f.a.^ ^ ^ ^ ^ ^ ^ ^ ^ ^ ^ ^ ^ ^ ^ ^ ^ ^ ^ ^ ^ ^ ^ ^ ^ ^ ^ ^ ^ ^ ",
"g.h.9.[ |.^ ^ ^ ^ ^ ^ ^ ^ ^ ^ ^ ^ ^ ^ ^ ^ ^ ^ ^ ^ ^ ^ ^ ^ ^ ^ ^ ^ ^ ^ "};
