/* XPM */
static char * four_xpm[] = {
"35 35 68 1",
" 	c #7B7B7B",
".	c #7D7D7D",
"+	c #838383",
"@	c #878787",
"#	c #969696",
"$	c #A6A6A6",
"%	c #BDBDBD",
"&	c #BCBCBD",
"*	c #BBBBBC",
"=	c #BABABC",
"-	c #BCBCBC",
";	c #A3A4B3",
">	c #7C7EA4",
",	c #676A9C",
"'	c #6B6E9E",
")	c #9294AD",
"!	c #B9B9BC",
"~	c #999BAF",
"{	c #7275A1",
"]	c #7477A1",
"^	c #9C9DB0",
"/	c #8A8CAA",
"(	c #3D428C",
"_	c #141A7D",
":	c #1B2180",
"<	c #686C9D",
"[	c #B6B6BA",
"}	c #777AA2",
"|	c #2A2F85",
"1	c #2E3487",
"2	c #8688A8",
"3	c #333889",
"4	c #070E78",
"5	c #0F167B",
"6	c #62659A",
"7	c #B5B5BA",
"8	c #7275A0",
"9	c #1E2581",
"0	c #232983",
"a	c #7779A2",
"b	c #A8A9B5",
"c	c #8F91AB",
"d	c #60649A",
"e	c #262C84",
"f	c #0E157B",
"g	c #272D84",
"h	c #43488F",
"i	c #7D80A5",
"j	c #B8B8BB",
"k	c #888AA9",
"l	c #494D91",
"m	c #12187C",
"n	c #191F7F",
"o	c #585C97",
"p	c #9394AD",
"q	c #A7A8B5",
"r	c #B2B2B9",
"s	c #686B9D",
"t	c #202681",
"u	c #1B2280",
"v	c #64679B",
"w	c #A6A6B4",
"x	c #8B8DAA",
"y	c #5A5E97",
"z	c #353A8A",
"A	c #13197C",
"B	c #11177C",
"C	c #525695",
"                                   ",
" .+@@@@@@@@@@@@@@@@@@@@@@@@@@@@@@@@",
" +#$$$$$$$$$$$$$$$$$$$$$$$$$$$$$$$$",
" @$%%%%%%%%%%%%%%%%%%%%%%%%%%%%%%%%",
" @$%%%%%%%%%%%%%%%%%%%%%%%%%%%%%%%%",
" @$%%%%%%%&*=====-%&*====*&%%%%%%%%",
" @$%%%%%%%;>,,,,')!~{,,,,]^%%%%%%%%",
" @$%%%%%%%/(____:<[}|____1>%%%%%%%%",
" @$%%%%%%%2344445678944440a%%%%%%%%",
" @$%%%%%%%2344445678944440a%%%%%%%%",
" @$%%%%%bcde44fghij8944440a%%%%%%%%",
" @$%%%%%klem44nopq*8944440a%%%%%%%%",
" @$%%%%%a0444498%%%8944440a%%%%%%%%",
" @$%%%%%a0444498%%%8944440a%%%%%%%%",
" @$%%%rqst4444uvwwwvu4444tsqr%%%%%%",
" @$%%*xyzA4444B3CCC3B4444Azyx*%%%%%",
" @$%%=,_4444444444444444444_,=%%%%%",
" @$%%=,_4444444444444444444_,=%%%%%",
" @$%%=,_4444444444444444444_,=%%%%%",
" @$%%*xyCCCCCCCCCCC3B4444Azyx*%%%%%",
" @$%%%rqwwwwwwwwwwwvu4444tsqr%%%%%%",
" @$%%%%%%%%%%%%%%%%8944440a%%%%%%%%",
" @$%%%%%%%%%%%%%%%%8944440a%%%%%%%%",
" @$%%%%%%%%%%%%%%%%8944440a%%%%%%%%",
" @$%%%%%%%%%%%%%%%%8944440a%%%%%%%%",
" @$%%%%%%%%%%%%%%%%8944440a%%%%%%%%",
" @$%%%%%%%%%%%%%%%%8944440a%%%%%%%%",
" @$%%%%%%%%%%%%%%%%}|____1>%%%%%%%%",
" @$%%%%%%%%%%%%%%%%~{,,,,]^%%%%%%%%",
" @$%%%%%%%%%%%%%%%%&*====*&%%%%%%%%",
" @$%%%%%%%%%%%%%%%%%%%%%%%%%%%%%%%%",
" @$%%%%%%%%%%%%%%%%%%%%%%%%%%%%%%%%",
" @$%%%%%%%%%%%%%%%%%%%%%%%%%%%%%%%%",
" @$%%%%%%%%%%%%%%%%%%%%%%%%%%%%%%%%",
" @$%%%%%%%%%%%%%%%%%%%%%%%%%%%%%%%%"};
