/* XPM */
static char * hidden_xpm[] = {
"35 35 27 1",
" 	c #FFFFFF",
".	c #E8E8E8",
"+	c #C9C9C9",
"@	c #BDBDBD",
"#	c #FAFAFA",
"$	c #F4F4F4",
"%	c #DBDBDB",
"&	c #B1B1B1",
"*	c #ECECEC",
"=	c #D9D9D9",
"-	c #9F9F9F",
";	c #929292",
">	c #FEFEFE",
",	c #FBFBFB",
"'	c #F8F8F8",
")	c #A1A1A1",
"!	c #868686",
"~	c #7B7B7B",
"{	c #EAEAEA",
"]	c #DADADA",
"^	c #8E8E8E",
"/	c #808080",
"(	c #A0A0A0",
"_	c #828282",
":	c #909090",
"<	c #7F7F7F",
"[	c #7C7C7C",
"                                .+@",
"                              #$%@&",
"                              *=@-;",
"   >,'''''''''''''''''''''''''%@)!~",
"   ,{]]]]]]]]]]]]]]]]]]]]]]]]]@-^/~",
"   ']@@@@@@@@@@@@@@@@@@@@@@@@@(_~~~",
"   ']@@@@@@@@@@@@@@@@@@@@@@@@@(_~~~",
"   ']@@@@@@@@@@@@@@@@@@@@@@@@@(_~~~",
"   ']@@@@@@@@@@@@@@@@@@@@@@@@@(_~~~",
"   ']@@@@@@@@@@@@@@@@@@@@@@@@@(_~~~",
"   ']@@@@@@@@@@@@@@@@@@@@@@@@@(_~~~",
"   ']@@@@@@@@@@@@@@@@@@@@@@@@@(_~~~",
"   ']@@@@@@@@@@@@@@@@@@@@@@@@@(_~~~",
"   ']@@@@@@@@@@@@@@@@@@@@@@@@@(_~~~",
"   ']@@@@@@@@@@@@@@@@@@@@@@@@@(_~~~",
"   ']@@@@@@@@@@@@@@@@@@@@@@@@@(_~~~",
"   ']@@@@@@@@@@@@@@@@@@@@@@@@@(_~~~",
"   ']@@@@@@@@@@@@@@@@@@@@@@@@@(_~~~",
"   ']@@@@@@@@@@@@@@@@@@@@@@@@@(_~~~",
"   ']@@@@@@@@@@@@@@@@@@@@@@@@@(_~~~",
"   ']@@@@@@@@@@@@@@@@@@@@@@@@@(_~~~",
"   ']@@@@@@@@@@@@@@@@@@@@@@@@@(_~~~",
"   ']@@@@@@@@@@@@@@@@@@@@@@@@@(_~~~",
"   ']@@@@@@@@@@@@@@@@@@@@@@@@@(_~~~",
"   ']@@@@@@@@@@@@@@@@@@@@@@@@@(_~~~",
"   ']@@@@@@@@@@@@@@@@@@@@@@@@@(_~~~",
"   ']@@@@@@@@@@@@@@@@@@@@@@@@@(_~~~",
"   ']@@@@@@@@@@@@@@@@@@@@@@@@@(_~~~",
"   ']@@@@@@@@@@@@@@@@@@@@@@@@@(_~~~",
"   ']@@@@@@@@@@@@@@@@@@@@@@@@@(_~~~",
" #*%@(((((((((((((((((((((((((:<~~~",
" $=@-_________________________<[~~~",
".%@)^~~~~~~~~~~~~~~~~~~~~~~~~~~~~~~",
"+@-!/~~~~~~~~~~~~~~~~~~~~~~~~~~~~~~",
"@&;~~~~~~~~~~~~~~~~~~~~~~~~~~~~~~~~"};
