/* XPM */
static char * mine_xpm[] = {
"35 35 107 2",
"  	c #7B7B7B",
". 	c #7D7D7D",
"+ 	c #838383",
"@ 	c #878787",
"# 	c #969696",
"$ 	c #A6A6A6",
"% 	c #BDBDBD",
"& 	c #BCBCBC",
"* 	c #B3B3B3",
"= 	c #ABABAB",
"- 	c #B2B2B2",
"; 	c #BBBBBB",
"> 	c #B8B8B8",
", 	c #888888",
"' 	c #585858",
") 	c #7F7F7F",
"! 	c #AFAFAF",
"~ 	c #B5B5B5",
"{ 	c #5E5E5E",
"] 	c #080808",
"^ 	c #4E4E4E",
"/ 	c #A5A5A5",
"( 	c #A1A1A1",
"_ 	c #8A8A8A",
": 	c #ADADAD",
"< 	c #8C8C8C",
"[ 	c #747474",
"} 	c #6F6F6F",
"| 	c #3A3A3A",
"1 	c #050505",
"2 	c #303030",
"3 	c #656565",
"4 	c #868686",
"5 	c #A7A7A7",
"6 	c #909090",
"7 	c #797979",
"8 	c #9A9A9A",
"9 	c #363636",
"0 	c #4D4D4D",
"a 	c #9B9B9B",
"b 	c #525252",
"c 	c #1E1E1E",
"d 	c #1C1C1C",
"e 	c #0F0F0F",
"f 	c #010101",
"g 	c #0C0C0C",
"h 	c #1A1A1A",
"i 	c #444444",
"j 	c #8D8D8D",
"k 	c #A4A4A4",
"l 	c #5B5B5B",
"m 	c #292929",
"n 	c #727272",
"o 	c #4F4F4F",
"p 	c #686868",
"q 	c #2B2B2B",
"r 	c #000000",
"s 	c #202020",
"t 	c #5C5C5C",
"u 	c #787878",
"v 	c #565656",
"w 	c #424242",
"x 	c #454545",
"y 	c #242424",
"z 	c #0B0B0B",
"A 	c #3D3D3D",
"B 	c #6A6A6A",
"C 	c #929292",
"D 	c #252525",
"E 	c #373737",
"F 	c #343434",
"G 	c #1B1B1B",
"H 	c #020202",
"I 	c #171717",
"J 	c #979797",
"K 	c #AAAAAA",
"L 	c #737373",
"M 	c #070707",
"N 	c #0A0A0A",
"O 	c #262626",
"P 	c #474747",
"Q 	c #818181",
"R 	c #FFFFFF",
"S 	c #F4F4F4",
"T 	c #808080",
"U 	c #0D0D0D",
"V 	c #646464",
"W 	c #BABABA",
"X 	c #EAEAEA",
"Y 	c #7A7A7A",
"Z 	c #5F5F5F",
"` 	c #404040",
" .	c #323232",
"..	c #5D5D5D",
"+.	c #040404",
"@.	c #484848",
"#.	c #060606",
"$.	c #767676",
"%.	c #A8A8A8",
"&.	c #575757",
"*.	c #A2A2A2",
"=.	c #383838",
"-.	c #151515",
";.	c #515151",
">.	c #6D6D6D",
",.	c #5A5A5A",
"'.	c #939393",
"                                                                      ",
"  . + @ @ @ @ @ @ @ @ @ @ @ @ @ @ @ @ @ @ @ @ @ @ @ @ @ @ @ @ @ @ @ @ ",
"  + # $ $ $ $ $ $ $ $ $ $ $ $ $ $ $ $ $ $ $ $ $ $ $ $ $ $ $ $ $ $ $ $ ",
"  @ $ % % % % % % % % % % % % % & * = - ; % % % % % % % % % % % % % % ",
"  @ $ % % % % % % % % % % % % % > , ' ) ! % % % % % % % % % % % % % % ",
"  @ $ % % % % % % % % % % % % % ~ { ] ^ / % % % % % % % % % % % % % % ",
"  @ $ % % % % % % % % % % % % % ~ { ] ^ / % % % % % % % % % % % % % % ",
"  @ $ % % % % % % % % % % % % % ~ { ] ^ / % % % % % % % % % % % % % % ",
"  @ $ % % % % % ( ) _ = : < [ [ } | 1 2 3 [ [ 4 5 - 6 7 8 & % % % % % ",
"  @ $ % % % % % ) 9 0 # a b c c d e f g h c c i j k l m n ; % % % % % ",
"  @ $ % % % % % _ 0 o n p q r r r r r r r r r s t u v w ) ; % % % % % ",
"  @ $ % % % % % = # n x y e r r r r r r r r r z s A B C 5 & % % % % % ",
"  @ $ % % % % % : a p y g D E E F G H r r r r r r I l J K & % % % % % ",
"  @ $ % % % % % < b q e D L = = k v M r r r r r r N O P Q ; % % % % % ",
"  @ $ % % % % % [ c r r E = R R S T z r r r r r r r r U V W % % % % % ",
"  @ $ % % % % % [ c r r E = R R S T z r r r r r r r r U V W % % % % % ",
"  @ $ & > ~ ~ ~ } d r r F k S S X Y N r r r r r r r r U Z - ~ ~ > ; % ",
"  @ $ * , { { { | e r r G v T T Y ` 1 r r r r r r r r M  ...{ { T = % ",
"  @ $ = ' ] ] ] 1 f r r H M z z N 1 r r r r r r r r r f +.] ] ] @.a % ",
"  @ $ - ) ^ ^ ^ 2 g r r r r r r r r r r r r r r r r r #.m 0 ^ ^ $.%.% ",
"  @ $ ; ! / / / 3 h r r r r r r r r r r r r r r r r r g &.*./ / : > % ",
"  @ $ % % % % % [ c r r r r r r r r r r r r r r r r r U V W % % % % % ",
"  @ $ % % % % % [ c r r r r r r r r r r r r r r r r r U V W % % % % % ",
"  @ $ % % % % % 4 i s z r r r r r r r r r r r r r M d =.7 ; % % % % % ",
"  @ $ % % % % % 5 j t s r r r r r r r r r r r r r -.;., *.& % % % % % ",
"  @ $ % % % % % - k u A I N r r r r r r r r r M -. .>.*.! % % % % % % ",
"  @ $ % % % % % 6 l v B l O r r r r r r r r r d ;.>.,.;.4 ; % % % % % ",
"  @ $ % % % % % 7 m w C J P U U U M f #.g U U =., *.;.h B W % % % % % ",
"  @ $ % % % % % 8 n ) 5 K Q V V Z  .+.m &.V V 7 *.! 4 B '.& % % % % % ",
"  @ $ % % % % % & ; ; & & ; W W - ..] 0 *.W W ; & % ; W & % % % % % % ",
"  @ $ % % % % % % % % % % % % % ~ { ] ^ / % % % % % % % % % % % % % % ",
"  @ $ % % % % % % % % % % % % % ~ { ] ^ / % % % % % % % % % % % % % % ",
"  @ $ % % % % % % % % % % % % % > T @.$.: % % % % % % % % % % % % % % ",
"  @ $ % % % % % % % % % % % % % ; = a %.> % % % % % % % % % % % % % % ",
"  @ $ % % % % % % % % % % % % % % % % % % % % % % % % % % % % % % % % "};
