/* XPM */
static char * one_xpm[] = {
"35 35 77 1",
" 	c #7B7B7B",
".	c #7D7D7D",
"+	c #828282",
"@	c #868686",
"#	c #838383",
"$	c #959595",
"%	c #A3A3A3",
"&	c #878787",
"*	c #A6A6A6",
"=	c #BDBDBD",
"-	c #BABBBE",
";	c #9DA0C9",
">	c #8086D3",
",	c #7E83D4",
"'	c #9296CD",
")	c #AFB1C2",
"!	c #B7B8BF",
"~	c #7A7FD6",
"{	c #3C47ED",
"]	c #3642EF",
"^	c #626ADF",
"/	c #A0A3C8",
"(	c #A3A5C7",
"_	c #8B8FCF",
":	c #565EE3",
"<	c #202EF7",
"[	c #1B29F9",
"}	c #505AE5",
"|	c #9A9DCA",
"1	c #AEAFC3",
"2	c #787ED6",
"3	c #4650E9",
"4	c #313EF1",
"5	c #1D2BF8",
"6	c #ABACC4",
"7	c #9094CE",
"8	c #535CE4",
"9	c #A8AAC5",
"0	c #7B80D6",
"a	c #525BE5",
"b	c #3541EF",
"c	c #B6B7BF",
"d	c #9397CC",
"e	c #4D57E6",
"f	c #A5A7C6",
"g	c #8085D4",
"h	c #5B63E1",
"i	c #3641EF",
"j	c #8F93CE",
"k	c #4953E8",
"l	c #222FF6",
"m	c #1E2CF8",
"n	c #9FA2C8",
"o	c #7279D9",
"p	c #5A63E2",
"q	c #B5B6C0",
"r	c #A2A4C7",
"s	c #5E66E0",
"t	c #AAACC4",
"u	c #8D91CF",
"v	c #7178D9",
"w	c #444EEA",
"x	c #3B47ED",
"y	c #6970DC",
"z	c #888CD1",
"A	c #9498CC",
"B	c #5760E3",
"C	c #333FF0",
"D	c #2633F5",
"E	c #2431F6",
"F	c #303DF1",
"G	c #4B55E7",
"H	c #898DD0",
"I	c #8C90CF",
"J	c #424DEA",
"K	c #3440F0",
"L	c #7E84D4",
"                                   ",
" .+@@@@@@@@@@@@@@@@@@@@@@@@@@@@@@@@",
" #$%%%%%%%%%%%%%%%%%%%%%%%%%%%%%%%%",
" &*================================",
" &*================================",
" &*================================",
" &*=============-;>,,')============",
" &*=============!~{]]^/============",
" &*===========!(_:<[[}|============",
" &*===========12345[[}|============",
" &*=========!678[[[[[}|============",
" &*=========90ab[[[[[}|============",
" &*=======-cde[[[[[[[}|============",
" &*=======fghi[[[[[[[}|============",
" &*=======jklm[[[[[[[}|============",
" &*=======noppab[[[[[}|============",
" &*=======q9rr78[[[[[}|============",
" &*===========9s[[[[[}|============",
" &*===========9s[[[[[}|============",
" &*===========9s[[[[[}|============",
" &*===========9s[[[[[}|============",
" &*===========9s[[[[[}|============",
" &*===========9s[[[[[}|============",
" &*===========9s[[[[[}|============",
" &*=======tu,,vw[[[[[xy,,zf========",
" &*=======AB]]CD[[[[[EF]]GH========",
" &*=======IJ[[[[[[[[[[[[[KL========",
" &*=======IJ[[[[[[[[[[[[[KL========",
" &*=======AB]]]]]]]]]]]]]GH========",
" &*=======tu,,,,,,,,,,,,,zf========",
" &*================================",
" &*================================",
" &*================================",
" &*================================",
" &*================================"};
