/* XPM */
static char * seven_xpm[] = {
"35 35 81 1",
" 	c #7B7B7B",
".	c #7D7D7D",
"+	c #838383",
"@	c #878787",
"#	c #969696",
"$	c #A6A6A6",
"%	c #BDBDBD",
"&	c #BCBCBC",
"*	c #BABABA",
"=	c #939393",
"-	c #6A6A6A",
";	c #646464",
">	c #1A1A1A",
",	c #0D0D0D",
"'	c #000000",
")	c #BBBBBB",
"!	c #7F7F7F",
"~	c #424242",
"{	c #393939",
"]	c #262626",
"^	c #0C0C0C",
"/	c #A7A7A7",
"(	c #929292",
"_	c #8F8F8F",
":	c #606060",
"<	c #1F1F1F",
"[	c #292929",
"}	c #B3B3B3",
"|	c #A8A8A8",
"1	c #6F6F6F",
"2	c #232323",
"3	c #040404",
"4	c #0F0F0F",
"5	c #242424",
"6	c #5D5D5D",
"7	c #353535",
"8	c #111111",
"9	c #444444",
"0	c #747474",
"a	c #989898",
"b	c #181818",
"c	c #1E1E1E",
"d	c #727272",
"e	c #414141",
"f	c #0E0E0E",
"g	c #131313",
"h	c #373737",
"i	c #B6B6B6",
"j	c #6B6B6B",
"k	c #030303",
"l	c #282828",
"m	c #737373",
"n	c #B4B4B4",
"o	c #B5B5B5",
"p	c #5E5E5E",
"q	c #080808",
"r	c #2E2E2E",
"s	c #848484",
"t	c #B7B7B7",
"u	c #A2A2A2",
"v	c #898989",
"w	c #484848",
"x	c #060606",
"y	c #505050",
"z	c #ACACAC",
"A	c #707070",
"B	c #363636",
"C	c #1C1C1C",
"D	c #020202",
"E	c #2B2B2B",
"F	c #686868",
"G	c #A5A5A5",
"H	c #4E4E4E",
"I	c #3E3E3E",
"J	c #949494",
"K	c #565656",
"L	c #474747",
"M	c #979797",
"N	c #B1B1B1",
"O	c #818181",
"P	c #AAAAAA",
"                                   ",
" .+@@@@@@@@@@@@@@@@@@@@@@@@@@@@@@@@",
" +#$$$$$$$$$$$$$$$$$$$$$$$$$$$$$$$$",
" @$%%%%%%%%%%%%%%%%%%%%%%%%%%%%%%%%",
" @$%%%%%%%%%%%%%%%%%%%%%%%%%%%%%%%%",
" @$%%%&*********************&%%%%%%",
" @$%%&=-;;;;;;;;;;;;;;;;;;;-=&%%%%%",
" @$%%*->,,,,,,,,,,,,,,,,,,,>-*%%%%%",
" @$%%*;,''''''''''''''''''',;*%%%%%",
" @$%%*;,''''''''''''''''''',;*%%%%%",
" @$%%)!~{{{{{{{{{{{{{]^'''',;*%%%%%",
" @$%%&/(_____________:<'''',;*%%%%%",
" @$%%%%%%%%%%%%%%%%%%!['''',;*%%%%%",
" @$%%%%%%%%%%%%%%%%%%!['''',;*%%%%%",
" @$%%%%%%%%%%%%%%%%}|12''3451*%%%%%",
" @$%%%%%%%%%%%%%%%%_678''890a&%%%%%",
" @$%%%%%%%%%%%%%%%%1b''''c0%%%%%%%%",
" @$%%%%%%%%%%%%%%%%1b''''c0%%%%%%%%",
" @$%%%%%%%%%%%%%%%%1b''''c0%%%%%%%%",
" @$%%%%%%%%%%%%%*#def''gh:(%%%%%%%%",
" @$%%%%%%%%%%%%%ij<fk''lm|n%%%%%%%%",
" @$%%%%%%%%%%%%%opq''''rs%%%%%%%%%%",
" @$%%%%%%%%%%%%%opq''''rs%%%%%%%%%%",
" @$%%%%%%%%%%%tuvwx''45y(%%%%%%%%%%",
" @$%%%%%%%%%%%zABCD''EF(z%%%%%%%%%%",
" @$%%%%%%%%%%%GH'''''IJ%%%%%%%%%%%%",
" @$%%%%%%%%%%%GH'''''IJ%%%%%%%%%%%%",
" @$%%%%%%%%%%%$K,,,,,LM%%%%%%%%%%%%",
" @$%%%%%%%%%%%Nv;;;;;OP%%%%%%%%%%%%",
" @$%%%%%%%%%%%%)*****)&%%%%%%%%%%%%",
" @$%%%%%%%%%%%%%%%%%%%%%%%%%%%%%%%%",
" @$%%%%%%%%%%%%%%%%%%%%%%%%%%%%%%%%",
" @$%%%%%%%%%%%%%%%%%%%%%%%%%%%%%%%%",
" @$%%%%%%%%%%%%%%%%%%%%%%%%%%%%%%%%",
" @$%%%%%%%%%%%%%%%%%%%%%%%%%%%%%%%%"};
