/* XPM */
static char * six_xpm[] = {
"35 35 35 1",
" 	c #7B7B7B",
".	c #7D7D7D",
"+	c #828282",
"@	c #868686",
"#	c #838383",
"$	c #959595",
"%	c #A3A3A3",
"&	c #878787",
"*	c #A6A6A6",
"=	c #BDBDBD",
"-	c #A2B3B3",
";	c #83A7A7",
">	c #78A3A3",
",	c #84A8A7",
"'	c #418F8E",
")	c #2A8685",
"!	c #BCBDBD",
"~	c #A6B4B4",
"{	c #8FACAC",
"]	c #5A9898",
"^	c #208282",
"/	c #0C7B7A",
"(	c #288584",
"_	c #79A3A3",
":	c #BBBCBC",
"<	c #81A6A6",
"[	c #469190",
"}	c #147E7D",
"|	c #BABCBC",
"1	c #699E9D",
"2	c #18807F",
"3	c #127D7C",
"4	c #238483",
"5	c #549695",
"6	c #328988",
" .+@@@@@@@@@@@@@@@@@@@@@@@@@@@@@@@@",
" #$%%%%%%%%%%%%%%%%%%%%%%%%%%%%%%%%",
" &*================================",
" &*================================",
" &*================================",
" &*=====-;>>>>>>>>>>>>>>>;-========",
" &*=====,')))))))))))))))',========",
" &*==!~{]^///////////////(_========",
" &*==:<[)}///////////////(_========",
" &*==|12////3^)))))))))))',========",
" &*==|12////45>>>>>>>>>>>;-========",
" &*==|12////6;=====================",
" &*==|12////6;=====================",
" &*==|12////6;=====================",
" &*==|12////45>>>>>>>>>>>;-========",
" &*==|12////3^)))))))))))',========",
" &*==|12/////////////////^]{~!=====",
" &*==|12/////////////////})[<:=====",
" &*==|12////3^)))))))^3////21|=====",
" &*==|12////45>>>>>>>54////21|=====",
" &*==|12////6;=======;6////21|=====",
" &*==|12////6;=======;6////21|=====",
" &*==|12////6;=======;6////21|=====",
" &*==|12////45>>>>>>>54////21|=====",
" &*==|12////3^)))))))^3////21|=====",
" &*==:<[)}///////////////})[<:=====",
" &*==!~{]^///////////////^]{~!=====",
" &*=====,')))))))))))))))',========",
" &*=====-;>>>>>>>>>>>>>>>;-========",
" &*================================",
" &*================================",
" &*================================",
" &*================================",
" &*================================",
" &*================================"};
