/* XPM */
static char * smiley_xpm[] = {
"58 58 367 2",
"  	c #7B7B7B",
". 	c #949494",
"+ 	c #B2B2B2",
"@ 	c #BDBDBD",
"# 	c #7F7F7F",
"$ 	c #8A8A8A",
"% 	c #939393",
"& 	c #8D8D8D",
"* 	c #888888",
"= 	c #979797",
"- 	c #AAAAAA",
"; 	c #B1B1B1",
"> 	c #B0B0B0",
", 	c #D0D0D0",
"' 	c #CECECE",
") 	c #BBBBBB",
"! 	c #A8A8A8",
"~ 	c #9E9E9E",
"{ 	c #969696",
"] 	c #929292",
"^ 	c #CDCDCD",
"/ 	c #FFFFFF",
"( 	c #FEFEFE",
"_ 	c #FBFBFB",
": 	c #F6F6F6",
"< 	c #D9D9D9",
"[ 	c #A0A0A0",
"} 	c #858585",
"| 	c #FAFAFA",
"1 	c #EAEAEA",
"2 	c #D8D8D8",
"3 	c #9D9D9D",
"4 	c #808080",
"5 	c #F5F5F5",
"6 	c #BABABA",
"7 	c #F2F2F2",
"8 	c #E5E5E5",
"9 	c #E0E0E0",
"0 	c #D7D7D7",
"a 	c #7D7D7D",
"b 	c #E6E6E6",
"c 	c #CACACA",
"d 	c #C2C2C2",
"e 	c #B9B9B9",
"f 	c #9B9B9B",
"g 	c #7E7E7E",
"h 	c #E4E4E4",
"i 	c #C6C6C6",
"j 	c #B4B4B4",
"k 	c #A3A3A3",
"l 	c #868686",
"m 	c #B6B6B6",
"n 	c #B8B8B8",
"o 	c #797979",
"p 	c #3A3A3A",
"q 	c #303030",
"r 	c #6A6A6A",
"s 	c #A2A2A2",
"t 	c #939392",
"u 	c #676754",
"v 	c #3B3A17",
"w 	c #34330D",
"x 	c #5D5C46",
"y 	c #898984",
"z 	c #9F9F9F",
"A 	c #676767",
"B 	c #414141",
"C 	c #454540",
"D 	c #727236",
"E 	c #A09F2C",
"F 	c #A7A62A",
"G 	c #7D7C34",
"H 	c #4F4F3E",
"I 	c #5B5B5B",
"J 	c #ACACAC",
"K 	c #868681",
"L 	c #484839",
"M 	c #1D1D07",
"N 	c #252509",
"O 	c #8A8923",
"P 	c #EEED3C",
"Q 	c #FEFD40",
"R 	c #A1A029",
"S 	c #3C3B0F",
"T 	c #3A3928",
"U 	c #787870",
"V 	c #B3B3B3",
"W 	c #989898",
"X 	c #686868",
"Y 	c #616046",
"Z 	c #7D7D32",
"` 	c #919024",
" .	c #959425",
"..	c #C6C532",
"+.	c #F6F53E",
"@.	c #D1D035",
"#.	c #A09F28",
"$.	c #84832E",
"%.	c #676742",
"&.	c #5C5C5C",
"*.	c #7B7B79",
"=.	c #2C2C27",
"-.	c #434311",
";.	c #B2B12D",
">.	c #CBCA33",
",.	c #5C5C17",
"'.	c #191914",
").	c #686866",
"!.	c #BCBCBC",
"~.	c #6B6B6B",
"{.	c #6A6A4B",
"].	c #76752D",
"^.	c #9B9A27",
"/.	c #D6D536",
"(.	c #E3E239",
"_.	c #A8A72A",
":.	c #787826",
"<.	c #6D6D44",
"[.	c #616161",
"}.	c #8B8B8B",
"|.	c #6D6D6D",
"1.	c #1E1E1E",
"2.	c #5A591C",
"3.	c #BFBF32",
"4.	c #F2F13D",
"5.	c #F9F83F",
"6.	c #FBFA3F",
"7.	c #F4F33D",
"8.	c #D7D637",
"9.	c #717121",
"0.	c #0C0C0C",
"a.	c #ABABAB",
"b.	c #B5B5B5",
"c.	c #727272",
"d.	c #6C6C4A",
"e.	c #666522",
"f.	c #999827",
"g.	c #DEDD38",
"h.	c #A9A92B",
"i.	c #646419",
"j.	c #6B6A41",
"k.	c #717169",
"l.	c #8C8C8C",
"m.	c #AEAEAE",
"n.	c #ADADAD",
"o.	c #646464",
"p.	c #1C1C1C",
"q.	c #717028",
"r.	c #C5C434",
"s.	c #E5E43A",
"t.	c #FAF93F",
"u.	c #E9E83B",
"v.	c #D8D736",
"w.	c #84832B",
"x.	c #2F2F1F",
"y.	c #535353",
"z.	c #9C9C9C",
"A.	c #555555",
"B.	c #000000",
"C.	c #72721D",
"D.	c #E4E339",
"E.	c #F3F23D",
"F.	c #D0CF34",
"G.	c #B0AF2C",
"H.	c #CDCD34",
"I.	c #F1F03D",
"J.	c #F8F83F",
"K.	c #B2B22D",
"L.	c #C8C732",
"M.	c #EBEA3B",
"N.	c #8C8B23",
"O.	c #1A1A06",
"P.	c #8D8C23",
"Q.	c #3D3C0F",
"R.	c #868522",
"S.	c #DDDC38",
"T.	c #F0EF3D",
"U.	c #9A9A27",
"V.	c #78781E",
"W.	c #CFCE34",
"X.	c #8A8A86",
"Y.	c #61614A",
"Z.	c #38370E",
"`.	c #EAE93B",
" +	c #DBDA37",
".+	c #69691A",
"++	c #606018",
"@+	c #D2D235",
"#+	c #ECEB3B",
"$+	c #7B7B1F",
"%+	c #090902",
"&+	c #4E4E14",
"*+	c #C0C030",
"=+	c #A5A42A",
"-+	c #4C4B13",
";+	c #57573C",
">+	c #818178",
",+	c #696969",
"'+	c #48483B",
")+	c #7A7A33",
"!+	c #ACAB2B",
"~+	c #D9D837",
"{+	c #B4B32D",
"]+	c #868531",
"^+	c #54543A",
"/+	c #E0DF38",
"(+	c #7D7C1F",
"_+	c #222208",
":+	c #75751E",
"<+	c #EFEE3C",
"[+	c #8C8C23",
"}+	c #29290A",
"|+	c #66651A",
"1+	c #C9C833",
"2+	c #35340D",
"3+	c #2E2E2E",
"4+	c #838383",
"5+	c #F0EF3C",
"6+	c #BDBC30",
"7+	c #F7F63E",
"8+	c #999826",
"9+	c #B5B52E",
"0+	c #C5C432",
"a+	c #B7B62E",
"b+	c #DCDB37",
"c+	c #C0BF30",
"d+	c #E2E139",
"e+	c #CECD34",
"f+	c #75741D",
"g+	c #535215",
"h+	c #C1C031",
"i+	c #68671A",
"j+	c #616018",
"k+	c #BAB92F",
"l+	c #5F5F5F",
"m+	c #3C3C2D",
"n+	c #7F7E2F",
"o+	c #C1C131",
"p+	c #F8F73E",
"q+	c #4F4E14",
"r+	c #8A8A23",
"s+	c #C4C331",
"t+	c #DFDE38",
"u+	c #CAC933",
"v+	c #989826",
"w+	c #5D5C17",
"x+	c #656419",
"y+	c #BBBB2F",
"z+	c #8E8E2F",
"A+	c #4C4C2E",
"B+	c #505050",
"C+	c #919191",
"D+	c #7D7D77",
"E+	c #666646",
"F+	c #9D9D28",
"G+	c #ECEB3C",
"H+	c #A2A229",
"I+	c #77761E",
"J+	c #555415",
"K+	c #A3A329",
"L+	c #66661A",
"M+	c #6C6C1B",
"N+	c #989726",
"O+	c #AFAE2C",
"P+	c #60603A",
"Q+	c #78786C",
"R+	c #E0E039",
"S+	c #7F7F20",
"T+	c #2C2C0B",
"U+	c #7C7C1F",
"V+	c #CCCB33",
"W+	c #8E8E24",
"X+	c #3E3E10",
"Y+	c #68681A",
"Z+	c #C3C331",
"`+	c #807F20",
" @	c #7A7A1F",
".@	c #929225",
"+@	c #B9B82F",
"@@	c #E6E53A",
"#@	c #8B8A23",
"$@	c #212008",
"%@	c #101004",
"&@	c #DDDD38",
"*@	c #FCFB40",
"=@	c #F5F43E",
"-@	c #888826",
";@	c #232311",
">@	c #494949",
",@	c #C2C231",
"'@	c #838221",
")@	c #B6B52E",
"!@	c #EDEC3C",
"~@	c #706F3D",
"{@	c #64645B",
"]@	c #818181",
"^@	c #FDFC40",
"/@	c #76751E",
"(@	c #070702",
"_@	c #565654",
":@	c #A6A6A5",
"<@	c #ABAB2B",
"[@	c #DCDB38",
"}@	c #E7E63A",
"|@	c #B6B62E",
"1@	c #8A8A29",
"2@	c #6E6E3D",
"3@	c #515151",
"4@	c #828282",
"5@	c #535315",
"6@	c #B8B82E",
"7@	c #CFCF34",
"8@	c #6A6A1B",
"9@	c #2B2B18",
"0@	c #696960",
"a@	c #5A593B",
"b@	c #878731",
"c@	c #AAA92B",
"d@	c #DAD937",
"e@	c #B3B22D",
"f@	c #92912F",
"g@	c #646439",
"h@	c #4E4E4E",
"i@	c #7F7F75",
"j@	c #525237",
"k@	c #3B3A0F",
"l@	c #969526",
"m@	c #AAAA2B",
"n@	c #4F4F14",
"o@	c #484829",
"p@	c #757567",
"q@	c #353530",
"r@	c #757430",
"s@	c #B4B330",
"t@	c #BEBD30",
"u@	c #838230",
"v@	c #434330",
"w@	c #4D4D4D",
"x@	c #848482",
"y@	c #69694E",
"z@	c #4E4D1B",
"A@	c #494912",
"B@	c #636242",
"C@	c #7E7E77",
"D@	c #B7B7B7",
"E@	c #717171",
"F@	c #2B2B2B",
"G@	c #202020",
"H@	c #A7A7A7",
"I@	c #9A9A9A",
"J@	c #7A7A7A",
"K@	c #757575",
"L@	c #FCFCFC",
"M@	c #DFDFDF",
"N@	c #C1C1C1",
"O@	c #FDFDFD",
"P@	c #EDEDED",
"Q@	c #DDDDDD",
"R@	c #C0C0C0",
"S@	c #959595",
"T@	c #7C7C7C",
"U@	c #BFBFBF",
"V@	c #909090",
"W@	c #878787",
"X@	c #A1A1A1",
"Y@	c #848484",
"Z@	c #8F8F8F",
"                                                                                                              . + @ ",
"  # $ % % % % % % % % % % % % % % % % % % % % % % % % % % % % % % % % % % % % % % % % % % % % % % % % % % & * = - ; ",
"  $ > , , , , , , , , , , , , , , , , , , , , , , , , , , , , , , , , , , , , , , , , , , , , , , , , , ' ) ! ~ { % ",
"  ] ^ / / / / / / / / / / / / / / / / / / / / / / / / / / / / / / / / / / / / / / / / / / / / / / / ( _ : < ) [ }   ",
"  ] ^ / / / / / / / / / / / / / / / / / / / / / / / / / / / / / / / / / / / / / / / / / / / / / / / | 1 2 ) 3 & 4   ",
"  ] ^ / / / / / ( ( ( ( ( ( ( ( ( ( ( ( ( ( ( ( ( ( ( ( ( ( ( ( ( ( ( ( ( ( ( ( ( ( ( ( ( ( ( ( ( ( 5 2 6 3 4       ",
"  ] ^ / / / 7 8 9 9 9 9 9 9 9 9 9 9 9 9 9 9 9 9 9 9 9 9 9 9 9 9 9 9 9 9 9 9 9 9 9 9 9 9 9 9 9 9 9 9 0 6 3 & a       ",
"  ] ^ / / / b c d d d d d d d d d d d d d d d d d d d d d d d d d d d d d d d d d d d d d d d d d d e f 4 g         ",
"  ] ^ / / / h i @ @ @ @ @ @ @ @ @ @ @ @ @ @ @ @ @ @ @ @ @ @ @ @ @ @ @ @ @ @ @ @ @ @ @ @ @ @ @ @ @ @ j {             ",
"  ] ^ / / / h i @ @ @ @ @ @ @ @ @ @ @ @ @ @ @ @ @ @ @ @ @ @ @ @ @ @ @ @ @ @ @ @ @ @ @ @ @ @ @ @ @ @ j {             ",
"  ] ^ / / / h i @ @ @ @ @ @ @ @ @ @ @ @ @ @ @ ) k $ l l l l l l l l l 3 m @ @ @ @ @ @ @ @ @ @ @ @ @ j {             ",
"  ] ^ / / / h i @ @ @ @ @ @ @ @ @ @ @ @ @ @ @ n o p q q q q q q q q q r - @ @ @ @ @ @ @ @ @ @ @ @ @ j {             ",
"  ] ^ / / / h i @ @ @ @ @ @ @ @ @ @ @ j s = = t u v w w w w w w w w w x y = = z > @ @ @ @ @ @ @ @ @ j {             ",
"  ] ^ / / / h i @ @ @ @ @ @ @ @ @ @ @ z A B B C D E F F F F F F F F F G H B B I ] @ @ @ @ @ @ @ @ @ j {             ",
"  ] ^ / / / h i @ @ @ @ @ @ @ @ @ m J K L M M N O P Q Q Q Q Q Q Q Q Q R S M M T U - V @ @ @ @ @ @ @ j {             ",
"  ] ^ / / / h i @ @ @ @ @ @ @ @ @ W X Y Z ` `  ...+.Q Q Q Q Q Q Q Q Q @.#.` ` $.%.&.& @ @ @ @ @ @ @ j {             ",
"  ] ^ / / / h i @ @ @ @ @ @ @ ) n *.=.-.;.Q Q Q Q Q Q Q Q Q Q Q Q Q Q Q Q Q Q >.,.'.).n 6 !.@ @ @ @ j {             ",
"  ] ^ / / / h i @ @ @ @ @ @ @ . ~.{.].^./.Q Q Q Q Q Q Q Q Q Q Q Q Q Q Q Q Q Q (._.:.<.[.}.j @ @ @ @ j {             ",
"  ] ^ / / / h i @ @ @ @ @ @ @ |.1.2.3.4.5.Q Q Q Q Q Q Q Q Q Q Q Q Q Q Q Q Q Q 6.7.8.9.0.I a.@ @ @ @ j {             ",
"  ] ^ / / / h i @ @ @ @ b.. c.d.e.f.g.Q Q Q Q Q Q Q Q Q Q Q Q Q Q Q Q Q Q Q Q Q Q P h.i.j.k.l.m.@ @ j {             ",
"  ] ^ / / / h i @ @ @ @ n.o.p.q.r.s.+.Q Q Q Q Q Q Q Q Q Q Q Q Q Q Q Q Q Q Q Q Q Q t.u.v.w.x.y.z.@ @ j {             ",
"  ] ^ / / / h i @ @ @ @ - A.B.C.D.Q Q Q Q E.F.G.G.G.H.I.Q Q Q Q J./.K.G.G.L.M.Q Q Q Q Q N.O.B { @ @ j {             ",
"  ] ^ / / / h i @ @ @ @ - A.B.C.D.Q Q Q Q D.P.Q.Q.Q.R.S.Q Q Q Q T.U.-.Q.Q.V.W.Q Q Q Q Q N.O.B { @ @ j {             ",
"  ] ^ / / / h i @ @ j s X.Y.Z.` `.Q Q Q Q  +.+B.B.B.++@+Q Q Q Q #+$+%+B.B.&+*+Q Q Q Q Q =+-+;+>+~ > j {             ",
"  ] ^ / / / h i @ @ k ,+'+)+!+@.+.Q Q Q Q  +.+B.B.B.++@+Q Q Q Q #+$+%+B.B.&+*+Q Q Q Q Q ~+{+]+^+&.{ j {             ",
"  ] ^ / / / h i @ @ { B O.N.Q Q Q Q Q Q Q /+(+_+_+_+:+v.Q Q Q Q <+[+}+_+_+|+1+Q Q Q Q Q Q Q F 2+3+4+j {             ",
"  ] ^ / / / h i @ @ { B O.N.Q Q Q Q Q Q Q 5+*+ . . .6+#+Q Q Q Q 7+L.8+ . .9+s.Q Q Q Q Q Q Q F 2+3+4+j {             ",
"  ] ^ / / / h i @ @ { B O.N.Q Q Q Q Q Q Q Q Q Q Q Q Q Q Q Q Q Q Q Q Q Q Q Q Q Q Q Q Q Q Q Q F 2+3+4+j {             ",
"  ] ^ / / / h i @ @ { B O.N.Q Q Q Q Q Q Q Q Q Q Q Q Q Q Q Q Q Q Q Q Q Q Q Q Q Q Q Q Q Q Q Q F 2+3+4+j {             ",
"  ] ^ / / / h i @ @ { B O.N.Q Q Q Q Q Q Q Q Q Q Q Q Q Q Q Q Q Q Q Q Q Q Q Q Q Q Q Q Q Q Q Q F 2+3+4+j {             ",
"  ] ^ / / / h i @ @ { B O.N.Q Q Q Q Q Q Q Q Q Q Q Q Q Q Q Q Q Q Q Q Q Q Q Q Q Q Q Q Q Q Q Q F 2+3+4+j {             ",
"  ] ^ / / / h i @ @ { B O.N.Q Q Q Q Q Q Q Q Q Q Q Q Q Q Q Q Q Q Q Q Q Q Q Q Q Q Q Q Q Q Q Q F 2+3+4+j {             ",
"  ] ^ / / / h i @ @ { B O.N.Q Q Q Q Q `.0+a+b+Q Q Q Q Q Q Q Q Q Q Q Q Q Q s.c+6+d+Q Q Q Q Q F 2+3+4+j {             ",
"  ] ^ / / / h i @ @ { B O.N.Q Q Q Q Q e+f+g+!+Q Q Q Q Q Q Q Q Q Q Q Q Q Q h+i+j+k+Q Q Q Q Q F 2+3+4+j {             ",
"  ] ^ / / / h i @ @ z l+m+n+o+S.p+Q Q W.V.q+r+s+t+t.Q Q Q Q Q Q Q Q Q s.u+v+w+x+y+Q Q Q (.L.z+A+B+C+j {             ",
"  ] ^ / / / h i @ @ ; = D+E+&+F+G+Q Q M.L.H+I+J+K+4.Q Q Q Q Q Q Q Q Q 9+L+M+N+c+(.Q Q Q O+++P+Q+C+a.j {             ",
"  ] ^ / / / h i @ @ @ @ - A.B.C.D.Q Q Q Q R+S+T+U+V+v.v.v.v.v.v.v.v.v.W+X+Y+u+Q Q Q Q Q N.O.B { @ @ j {             ",
"  ] ^ / / / h i @ @ @ @ - A.B.C.D.Q Q Q Q T.Z+N+`+Y+i.i.i.i.i.i.i.i.i. @.@+@@@Q Q Q Q Q N.O.B { @ @ j {             ",
"  ] ^ / / / h i @ @ @ @ a.I 0.9.8.7.6.Q Q Q Q +.#@$@%@%@%@%@%@%@%@%@%@C.&@Q Q Q Q *@=@P -@;@>@W @ @ j {             ",
"  ] ^ / / / h i @ @ @ @ j }.[.<.:._.(.Q Q Q Q t.,@N.'@'@'@'@'@'@'@'@'@)@!@Q Q Q Q I.)@$+~@{@]@- @ @ j {             ",
"  ] ^ / / / h i @ @ @ @ !.6 n ).'.,.>.Q Q Q Q Q 6.p+7+7+7+7+7+7+7+7+7+t.^@Q Q Q Q s./@(@_@:@6 !.@ @ j {             ",
"  ] ^ / / / h i @ @ @ @ @ @ @ & &.%.$.<@[@Q Q Q Q Q Q Q Q Q Q Q Q Q Q Q Q Q Q }@|@1@2@3@4@+ @ @ @ @ j {             ",
"  ] ^ / / / h i @ @ @ @ @ @ @ V - U T 5@6@Q Q Q Q Q Q Q Q Q Q Q Q Q Q Q Q Q Q 7@8@9@0@! ; ) @ @ @ @ j {             ",
"  ] ^ / / / h i @ @ @ @ @ @ @ @ @ ] I a@b@F F c@@.p+Q Q Q Q Q Q Q Q Q d@e@F F f@g@h@} @ @ @ @ @ @ @ j {             ",
"  ] ^ / / / h i @ @ @ @ @ @ @ @ @ > z i@j@w w k@l@5+Q Q Q Q Q Q Q Q Q m@n@w w o@p@f J @ @ @ @ @ @ @ j {             ",
"  ] ^ / / / h i @ @ @ @ @ @ @ @ @ @ @ f &.q q q@r@s@t@t@t@t@t@t@t@t@t@u@v@q q w@& @ @ @ @ @ @ @ @ @ j {             ",
"  ] ^ / / / h i @ @ @ @ @ @ @ @ @ @ @ > = l l x@y@z@A@A@A@A@A@A@A@A@A@B@C@l l ] - @ @ @ @ @ @ @ @ @ j {             ",
"  ] ^ / / / h i @ @ @ @ @ @ @ @ @ @ @ @ @ @ @ D@E@F@G@G@G@G@G@G@G@G@G@[.H@@ @ @ @ @ @ @ @ @ @ @ @ @ j {             ",
"  ] ^ / / / h i @ @ @ @ @ @ @ @ @ @ @ @ @ @ @ 6 I@J@K@K@K@K@K@K@K@K@K@% V @ @ @ @ @ @ @ @ @ @ @ @ @ j {             ",
"  ] ^ / L@| M@N@n n n n n n n n n n n n n n n n n n n n n n n n n n n n n n n n n n n n n n n n n n > .             ",
"  ] ^ O@P@Q@R@k I@I@I@I@I@I@I@I@I@I@I@I@I@I@I@I@I@I@I@I@I@I@I@I@I@I@I@I@I@I@I@I@I@I@I@I@I@I@I@I@I@I@S@*             ",
"  ] ^ | Q@R@s } T@T@T@T@T@T@T@T@T@T@T@T@T@T@T@T@T@T@T@T@T@T@T@T@T@T@T@T@T@T@T@T@T@T@T@T@T@T@T@T@T@T@                ",
"  & ) Q@U@s V@4                                                                                                     ",
"  W@! U@X@Y@# T@                                                                                                    ",
"% { ~ s Z@T@                                                                                                        ",
"; - = l ]@                                                                                                          ",
"@ + .                                                                                                               ",
"@ @ @ @ @ @ @ @ @ @ @ @ @ @ @ @ @ @ @ @ @ @ @ @ @ @ @ @ @ @ @ @ @ @ @ @ @ @ @ @ @ @ @ @ @ @ @ @ @ @ @ @ @ @ @ @ @ @ "};
