/* XPM */
static char * three_xpm[] = {
"35 35 52 1",
" 	c #7B7B7B",
".	c #7D7D7D",
"+	c #838383",
"@	c #878787",
"#	c #969696",
"$	c #A6A6A6",
"%	c #BDBDBD",
"&	c #BDBCBC",
"*	c #BEBBBB",
"=	c #BEBABB",
"-	c #CB989A",
";	c #D97478",
">	c #DB6F73",
",	c #D77B7F",
"'	c #C99FA0",
")	c #F42E36",
"!	c #F8232C",
"~	c #EF3B43",
"{	c #D48185",
"]	c #FD1721",
"^	c #F72730",
"/	c #E5555C",
"(	c #FB1B25",
"_	c #D28689",
":	c #E75158",
"<	c #EA4950",
"[	c #F03941",
"}	c #F9222B",
"|	c #C4AAAB",
"1	c #CC9597",
"2	c #DC6C70",
"3	c #F3323A",
"4	c #D2878A",
"5	c #BFB8B9",
"6	c #C3AFAF",
"7	c #C5A8A9",
"8	c #D8787C",
"9	c #F1363E",
"0	c #FC1A24",
"a	c #F8242D",
"b	c #F1373F",
"c	c #D7797D",
"d	c #D67C80",
"e	c #E25C62",
"f	c #EB454C",
"g	c #F7262F",
"h	c #E65359",
"i	c #D67D81",
"j	c #CA9D9E",
"k	c #CB999B",
"l	c #E84D54",
"m	c #F33139",
"                                   ",
" .+@@@@@@@@@@@@@@@@@@@@@@@@@@@@@@@@",
" +#$$$$$$$$$$$$$$$$$$$$$$$$$$$$$$$$",
" @$%%%%%%%%%%%%%%%%%%%%%%%%%%%%%%%%",
" @$%%%%%%%%%%%%%%%%%%%%%%%%%%%%%%%%",
" @$%%%&*=================*&%%%%%%%%",
" @$%%&-;>>>>>>>>>>>>>>>>>,'%%%%%%%%",
" @$%%*;)!!!!!!!!!!!!!!!!!~{%%%%%%%%",
" @$%%=>!]]]]]]]]]]]]]]]]]^/{'&%%%%%",
" @$%%=>!]]]]]]]]]]]]]]]]](^~,*%%%%%",
" @$%%*_:<<<<<<<<<<<<<[}]]]]!>=%%%%%",
" @$%%&|-111111111111123]]]]!>=%%%%%",
" @$%%%%%%%%%%%%%%%%%%4~]]]]!>=%%%%%",
" @$%%%%%%%%%%%%%%%%%%4~]]]]!>=%%%%%",
" @$%%%%%%%%%56777777789]]0abc*%%%%%",
" @$%%%%%%%%%7deeeeeeefg]]ghij&%%%%%",
" @$%%%%%%%%%kl]]]]]]]]]]]mi%%%%%%%%",
" @$%%%%%%%%%kl]]]]]]]]]]]mi%%%%%%%%",
" @$%%%%%%%%%kl]]]]]]]]]]]mi%%%%%%%%",
" @$%%%%%%%%%7deeeeeeefg]]ghij&%%%%%",
" @$%%%%%%%%%56777777789]]0abc*%%%%%",
" @$%%%%%%%%%%%%%%%%%%4~]]]]!>=%%%%%",
" @$%%%%%%%%%%%%%%%%%%4~]]]]!>=%%%%%",
" @$%%&|-111111111111123]]]]!>=%%%%%",
" @$%%*_:<<<<<<<<<<<<<[}]]]]!>=%%%%%",
" @$%%=>!]]]]]]]]]]]]]]]]](^~,*%%%%%",
" @$%%=>!]]]]]]]]]]]]]]]]]^/{'&%%%%%",
" @$%%*;)!!!!!!!!!!!!!!!!!~{%%%%%%%%",
" @$%%&-;>>>>>>>>>>>>>>>>>,'%%%%%%%%",
" @$%%%&*=================*&%%%%%%%%",
" @$%%%%%%%%%%%%%%%%%%%%%%%%%%%%%%%%",
" @$%%%%%%%%%%%%%%%%%%%%%%%%%%%%%%%%",
" @$%%%%%%%%%%%%%%%%%%%%%%%%%%%%%%%%",
" @$%%%%%%%%%%%%%%%%%%%%%%%%%%%%%%%%",
" @$%%%%%%%%%%%%%%%%%%%%%%%%%%%%%%%%"};
