/* XPM */
static char * two_xpm[] = {
"35 35 121 2",
"  	c #7B7B7B",
". 	c #7D7D7D",
"+ 	c #838383",
"@ 	c #878787",
"# 	c #828282",
"$ 	c #959595",
"% 	c #A6A6A6",
"& 	c #868686",
"* 	c #A3A3A3",
"= 	c #BDBDBD",
"- 	c #BCBDBC",
"; 	c #BBBCBB",
"> 	c #BABCBA",
", 	c #A5B4A7",
"' 	c #7EA683",
") 	c #669D6D",
"! 	c #8EAB91",
"~ 	c #418F4B",
"{ 	c #127E20",
"] 	c #A1B3A3",
"^ 	c #82A787",
"/ 	c #57975F",
"( 	c #248531",
"_ 	c #057914",
": 	c #80A785",
"< 	c #3C8D46",
"[ 	c #1A8127",
"} 	c #0D7C1B",
"| 	c #75A27B",
"1 	c #248430",
"2 	c #087A17",
"3 	c #21832D",
"4 	c #398C44",
"5 	c #3C8D47",
"6 	c #4B9354",
"7 	c #89AA8D",
"8 	c #90AD94",
"9 	c #85A889",
"0 	c #45914F",
"a 	c #2D8838",
"b 	c #348B40",
"c 	c #B5BAB6",
"d 	c #B3B9B4",
"e 	c #619B68",
"f 	c #0F7D1D",
"g 	c #8BAA8F",
"h 	c #81A786",
"i 	c #84A889",
"j 	c #9FB2A1",
"k 	c #B6BBB7",
"l 	c #ACB7AD",
"m 	c #9DB19F",
"n 	c #55975E",
"o 	c #0E7C1C",
"p 	c #0C7B1A",
"q 	c #167F24",
"r 	c #388C43",
"s 	c #9FB2A2",
"t 	c #6FA075",
"u 	c #51955A",
"v 	c #4D9456",
"w 	c #2B8737",
"x 	c #097B18",
"y 	c #23842F",
"z 	c #53965C",
"A 	c #B9BCB9",
"B 	c #B6BAB6",
"C 	c #368B41",
"D 	c #3E8E48",
"E 	c #8CAB90",
"F 	c #B8BBB8",
"G 	c #8FAC93",
"H 	c #479251",
"I 	c #1F822B",
"J 	c #298635",
"K 	c #52955A",
"L 	c #7BA480",
"M 	c #A3B4A6",
"N 	c #659C6C",
"O 	c #177F24",
"P 	c #0B7B19",
"Q 	c #077A16",
"R 	c #4A9253",
"S 	c #98AF9B",
"T 	c #B7BBB8",
"U 	c #A8B5AA",
"V 	c #86A98A",
"W 	c #71A177",
"X 	c #6B9F72",
"Y 	c #3B8D46",
"Z 	c #338A3F",
"` 	c #7BA581",
" .	c #ABB6AC",
"..	c #91AD94",
"+.	c #499253",
"@.	c #1D822A",
"#.	c #1B8129",
"$.	c #117D1F",
"%.	c #067915",
"&.	c #20832D",
"*.	c #679D6E",
"=.	c #AFB8B0",
"-.	c #5E9A66",
";.	c #278633",
">.	c #378C42",
",.	c #56975F",
"'.	c #8DAB91",
").	c #22842E",
"!.	c #107D1E",
"~.	c #3D8E48",
"{.	c #7DA582",
"].	c #95AE99",
"^.	c #9CB19F",
"/.	c #AEB7AF",
"(.	c #79A47F",
"_.	c #1B8128",
":.	c #338A3E",
"<.	c #52955B",
"[.	c #7AA480",
"}.	c #2F883A",
"|.	c #9BB09E",
"                                                                      ",
". + @ @ @ @ @ @ @ @ @ @ @ @ @ @ @ @ @ @ @ @ @ @ @ @ @ @ @ @ @ @ @ @ @ ",
"# $ % % % % % % % % % % % % % % % % % % % % % % % % % % % % % % % % % ",
"& * = = = = = = = = = = = = = = = = = = = = = = = = = = = = = = = = = ",
"& * = = = = = = = = = = = = = = = = = = = = = = = = = = = = = = = = = ",
"& * = = = = = - ; > > > > > > > > > > > > > > > > ; - = = = = = = = = ",
"& * = = = = = , ' ) ) ) ) ) ) ) ) ) ) ) ) ) ) ) ) ' , = = = = = = = = ",
"& * = = = = = ! ~ { { { { { { { { { { { { { { { { ~ ! = = = = = = = = ",
"& * = = = ] ^ / ( _ _ _ _ _ _ _ _ _ _ _ _ _ _ _ _ ( / ^ ] = = = = = = ",
"& * = = = : < [ } _ _ _ _ _ _ _ _ _ _ _ _ _ _ _ _ } [ < : = = = = = = ",
"& * = = = | 1 _ _ _ _ 2 3 4 5 5 5 5 5 5 4 3 2 _ _ _ _ 1 | = = = = = = ",
"& * = = = | 1 _ _ _ _ } 6 7 8 8 8 8 8 8 7 6 } _ _ _ _ 1 | = = = = = = ",
"& * = = = 9 0 a a a a b | c = = = = = = d e f _ _ _ _ 1 | = = = = = = ",
"& * = = = , g h h h h i j > = = = = = = d e f _ _ _ _ 1 | = = = = = = ",
"& * = = = = = = = = = = = = = = k l , , m n o _ _ p q r ' = = = = = = ",
"& * = = = = = = = = = = = = = = s t u u v w x _ _ y z ' s = = = = = = ",
"& * = = = = = = = = = = A B c c i C _ _ _ _ _ 2 p D E = = = = = = = = ",
"& * = = = = = = = = = F G ) e e H I _ _ _ _ _ J K L M = = = = = = = = ",
"& * = = = = = = = = = d N O } } P Q _ _ _ _ _ R S T ; = = = = = = = = ",
"& * = = = = = U V W W X Y P _ _ _ _ { Z u u u `  .= = = = = = = = = = ",
"& * = = = = = ..+.@.@.#.$.%._ _ _ _ &.*., , , =.A = = = = = = = = = = ",
"& * = = = , g -.;._ _ _ _ _ @.>.~ ~ ,.'.= = = = = = = = = = = = = = = ",
"& * = = = 9 0 ).!._ _ _ _ _ ~.{.].].^./.= = = = = = = = = = = = = = = ",
"& * = = = | 1 _ _ _ _ _ _ _ Y (.8 8 8 8 8 8 8 8 8 8 8 S l = = = = = = ",
"& * = = = | 1 _ _ _ _ _ _ _ _.:.5 5 5 5 5 5 5 5 5 5 5 <.g = = = = = = ",
"& * = = = | 1 _ _ _ _ _ _ _ _ _ _ _ _ _ _ _ _ _ _ _ _ 1 | = = = = = = ",
"& * = = = | 1 _ _ _ _ _ _ _ _ _ _ _ _ _ _ _ _ _ _ _ _ 1 | = = = = = = ",
"& * = = = [.}.{ { { { { { { { { { { { { { { { { { { { }.[.= = = = = = ",
"& * = = = |.| ) ) ) ) ) ) ) ) ) ) ) ) ) ) ) ) ) ) ) ) | |.= = = = = = ",
"& * = = = - ; > > > > > > > > > > > > > > > > > > > > ; - = = = = = = ",
"& * = = = = = = = = = = = = = = = = = = = = = = = = = = = = = = = = = ",
"& * = = = = = = = = = = = = = = = = = = = = = = = = = = = = = = = = = ",
"& * = = = = = = = = = = = = = = = = = = = = = = = = = = = = = = = = = ",
"& * = = = = = = = = = = = = = = = = = = = = = = = = = = = = = = = = = ",
"& * = = = = = = = = = = = = = = = = = = = = = = = = = = = = = = = = = "};
