/* XPM */
static char * win_xpm[] = {
"58 58 432 2",
"  	c #7B7B7B",
". 	c #949494",
"+ 	c #B2B2B2",
"@ 	c #BDBDBD",
"# 	c #7F7F7F",
"$ 	c #8A8A8A",
"% 	c #939393",
"& 	c #8D8D8D",
"* 	c #888888",
"= 	c #979797",
"- 	c #AAAAAA",
"; 	c #B1B1B1",
"> 	c #B0B0B0",
", 	c #D0D0D0",
"' 	c #CECECE",
") 	c #BBBBBB",
"! 	c #A8A8A8",
"~ 	c #9E9E9E",
"{ 	c #969696",
"] 	c #929292",
"^ 	c #CDCDCD",
"/ 	c #FFFFFF",
"( 	c #FEFEFE",
"_ 	c #FBFBFB",
": 	c #F6F6F6",
"< 	c #D9D9D9",
"[ 	c #A0A0A0",
"} 	c #858585",
"| 	c #FAFAFA",
"1 	c #EAEAEA",
"2 	c #D8D8D8",
"3 	c #9D9D9D",
"4 	c #808080",
"5 	c #F5F5F5",
"6 	c #BABABA",
"7 	c #F2F2F2",
"8 	c #E5E5E5",
"9 	c #E0E0E0",
"0 	c #D7D7D7",
"a 	c #7D7D7D",
"b 	c #E6E6E6",
"c 	c #CACACA",
"d 	c #C2C2C2",
"e 	c #B9B9B9",
"f 	c #9B9B9B",
"g 	c #7E7E7E",
"h 	c #E4E4E4",
"i 	c #C6C6C6",
"j 	c #B4B4B4",
"k 	c #A3A3A3",
"l 	c #868686",
"m 	c #B6B6B6",
"n 	c #B8B8B8",
"o 	c #797979",
"p 	c #3A3A3A",
"q 	c #303030",
"r 	c #6A6A6A",
"s 	c #A2A2A2",
"t 	c #939392",
"u 	c #676754",
"v 	c #3B3A17",
"w 	c #34330D",
"x 	c #5D5C46",
"y 	c #898984",
"z 	c #9F9F9F",
"A 	c #676767",
"B 	c #414141",
"C 	c #454540",
"D 	c #727236",
"E 	c #A09F2C",
"F 	c #A7A62A",
"G 	c #7D7C34",
"H 	c #4F4F3E",
"I 	c #5B5B5B",
"J 	c #ACACAC",
"K 	c #868681",
"L 	c #484839",
"M 	c #1D1D07",
"N 	c #252509",
"O 	c #8A8923",
"P 	c #EEED3C",
"Q 	c #FEFD40",
"R 	c #A1A029",
"S 	c #3C3B0F",
"T 	c #3A3928",
"U 	c #787870",
"V 	c #B3B3B3",
"W 	c #989898",
"X 	c #686868",
"Y 	c #616046",
"Z 	c #7D7D32",
"` 	c #919024",
" .	c #959425",
"..	c #C6C532",
"+.	c #F6F53E",
"@.	c #D1D035",
"#.	c #A09F28",
"$.	c #84832E",
"%.	c #676742",
"&.	c #5C5C5C",
"*.	c #7B7B79",
"=.	c #2C2C27",
"-.	c #434311",
";.	c #B2B12D",
">.	c #CBCA33",
",.	c #5C5C17",
"'.	c #191914",
").	c #686866",
"!.	c #BCBCBC",
"~.	c #6B6B6B",
"{.	c #6A6A4B",
"].	c #76752D",
"^.	c #9B9A27",
"/.	c #D6D536",
"(.	c #E3E239",
"_.	c #A8A72A",
":.	c #787826",
"<.	c #6D6D44",
"[.	c #616161",
"}.	c #8B8B8B",
"|.	c #6D6D6D",
"1.	c #1E1E1E",
"2.	c #5A591C",
"3.	c #BFBF32",
"4.	c #F2F13D",
"5.	c #F9F83F",
"6.	c #FBFA3F",
"7.	c #F4F33D",
"8.	c #D7D637",
"9.	c #717121",
"0.	c #0C0C0C",
"a.	c #ABABAB",
"b.	c #B5B5B5",
"c.	c #727272",
"d.	c #6C6C4A",
"e.	c #666522",
"f.	c #999827",
"g.	c #DEDD38",
"h.	c #A9A92B",
"i.	c #646419",
"j.	c #6B6A41",
"k.	c #717169",
"l.	c #8C8C8C",
"m.	c #AEAEAE",
"n.	c #ADADAD",
"o.	c #646464",
"p.	c #1C1C1C",
"q.	c #717028",
"r.	c #C5C434",
"s.	c #E5E43A",
"t.	c #FAF93F",
"u.	c #E9E83B",
"v.	c #D8D736",
"w.	c #84832B",
"x.	c #2F2F1F",
"y.	c #535353",
"z.	c #9C9C9C",
"A.	c #555555",
"B.	c #000000",
"C.	c #72721D",
"D.	c #E4E339",
"E.	c #EBEA3B",
"F.	c #C8C732",
"G.	c #B0AF2C",
"H.	c #C0BF30",
"I.	c #8C8B23",
"J.	c #1A1A06",
"K.	c #CFCE34",
"L.	c #78781E",
"M.	c #3D3C0F",
"N.	c #656419",
"O.	c #BBBB2F",
"P.	c #8A8A86",
"Q.	c #61614A",
"R.	c #38370E",
"S.	c #EAE93B",
"T.	c #D2D135",
"U.	c #969626",
"V.	c #3D3D0F",
"W.	c #0F0F04",
"X.	c #28280A",
"Y.	c #2E2E0C",
"Z.	c #151505",
"`.	c #29290A",
" +	c #828221",
".+	c #CCCB33",
"++	c #A5A42A",
"@+	c #4C4B13",
"#+	c #57573C",
"$+	c #818178",
"%+	c #696969",
"&+	c #48483B",
"*+	c #7A7A33",
"=+	c #ACAB2B",
"-+	c #C3C231",
";+	c #76751E",
">+	c #3E3E10",
",+	c #191906",
"'+	c #302F0C",
")+	c #7C7C1F",
"!+	c #8E8E24",
"~+	c #414110",
"{+	c #111104",
"]+	c #36360E",
"^+	c #646319",
"/+	c #B1B02D",
"(+	c #D9D837",
"_+	c #B4B32D",
":+	c #868531",
"<+	c #54543A",
"[+	c #EFEE3C",
"}+	c #E0DF38",
"|+	c #9C9C27",
"1+	c #484812",
"2+	c #1A1906",
"3+	c #0A0A03",
"4+	c #464612",
"5+	c #B8B72E",
"6+	c #D2D235",
"7+	c #606018",
"8+	c #070702",
"9+	c #161606",
"0+	c #35340D",
"a+	c #888822",
"b+	c #DCDB37",
"c+	c #2E2E2E",
"d+	c #838383",
"e+	c #BBBA2F",
"f+	c #71701C",
"g+	c #1F1F08",
"h+	c #626119",
"i+	c #909024",
"j+	c #7D7C1F",
"k+	c #69691A",
"l+	c #868522",
"m+	c #F3F23D",
"n+	c #8B8A23",
"o+	c #222209",
"p+	c #5E5E18",
"q+	c #C2C131",
"r+	c #525215",
"s+	c #050501",
"t+	c #020200",
"u+	c #040401",
"v+	c #090902",
"w+	c #4E4E14",
"x+	c #D4D335",
"y+	c #67671A",
"z+	c #39390E",
"A+	c #A8A82A",
"B+	c #0B0B03",
"C+	c #73731D",
"D+	c #DBDB37",
"E+	c #32320D",
"F+	c #0D0D03",
"G+	c #7F7E20",
"H+	c #ABAA2B",
"I+	c #79781D",
"J+	c #35350B",
"K+	c #191905",
"L+	c #30300C",
"M+	c #A2A229",
"N+	c #DBDA37",
"O+	c #E8E73A",
"P+	c #AFAE2C",
"Q+	c #76761E",
"R+	c #3E3D0F",
"S+	c #131304",
"T+	c #2E2E0A",
"U+	c #656518",
"V+	c #BCBB2E",
"W+	c #F1F03D",
"X+	c #535315",
"Y+	c #1A1A07",
"Z+	c #010100",
"`+	c #060602",
" @	c #F7F63E",
".@	c #FCFB3F",
"+@	c #DDDC37",
"@@	c #9F9F25",
"#@	c #656515",
"$@	c #30300A",
"%@	c #C9C933",
"&@	c #FCFB40",
"*@	c #E2E139",
"=@	c #242408",
"-@	c #585813",
";@	c #919121",
">@	c #CFCE33",
",@	c #FDFC40",
"'@	c #F8F73E",
")@	c #020201",
"!@	c #3A3A0F",
"~@	c #C9C831",
"{@	c #A7A628",
"]@	c #878621",
"^@	c #A2A129",
"/@	c #E4E43A",
"(@	c #B1B12D",
"_@	c #6E6E1C",
":@	c #7F7F1F",
"<@	c #9F9F26",
"[@	c #C1C02E",
"}@	c #E3E338",
"|@	c #454511",
"1@	c #161605",
"2@	c #79791F",
"3@	c #EAE93A",
"4@	c #F8F73F",
"5@	c #EDEC3C",
"6@	c #DDDD38",
"7@	c #E1E039",
"8@	c #E9E83A",
"9@	c #F0EF3C",
"0@	c #2E2D0B",
"a@	c #5F5F5F",
"b@	c #3C3C2D",
"c@	c #7F7E2F",
"d@	c #C1C131",
"e@	c #DDDC38",
"f@	c #C4C331",
"g@	c #DFDE38",
"h@	c #CAC933",
"i@	c #8E8E2F",
"j@	c #4C4C2E",
"k@	c #505050",
"l@	c #919191",
"m@	c #7D7D77",
"n@	c #666646",
"o@	c #9D9D28",
"p@	c #ECEB3C",
"q@	c #E6E53A",
"r@	c #979726",
"s@	c #555415",
"t@	c #A3A329",
"u@	c #B5B52E",
"v@	c #66661A",
"w@	c #858421",
"x@	c #D3D335",
"y@	c #60603A",
"z@	c #78786C",
"A@	c #E0E039",
"B@	c #7F7F20",
"C@	c #2C2C0B",
"D@	c #68681A",
"E@	c #F0EF3D",
"F@	c #C3C331",
"G@	c #989726",
"H@	c #807F20",
"I@	c #7A7A1F",
"J@	c #929225",
"K@	c #B9B82F",
"L@	c #212008",
"M@	c #101004",
"N@	c #F5F43E",
"O@	c #888826",
"P@	c #232311",
"Q@	c #494949",
"R@	c #C2C231",
"S@	c #838221",
"T@	c #B6B52E",
"U@	c #7B7B1F",
"V@	c #706F3D",
"W@	c #64645B",
"X@	c #818181",
"Y@	c #565654",
"Z@	c #A6A6A5",
"`@	c #ABAB2B",
" #	c #DCDB38",
".#	c #E7E63A",
"+#	c #B6B62E",
"@#	c #8A8A29",
"##	c #6E6E3D",
"$#	c #515151",
"%#	c #828282",
"&#	c #B8B82E",
"*#	c #CFCF34",
"=#	c #6A6A1B",
"-#	c #2B2B18",
";#	c #696960",
">#	c #5A593B",
",#	c #878731",
"'#	c #AAA92B",
")#	c #DAD937",
"!#	c #B3B22D",
"~#	c #92912F",
"{#	c #646439",
"]#	c #4E4E4E",
"^#	c #7F7F75",
"/#	c #525237",
"(#	c #3B3A0F",
"_#	c #969526",
":#	c #AAAA2B",
"<#	c #4F4F14",
"[#	c #484829",
"}#	c #757567",
"|#	c #353530",
"1#	c #757430",
"2#	c #B4B330",
"3#	c #BEBD30",
"4#	c #838230",
"5#	c #434330",
"6#	c #4D4D4D",
"7#	c #848482",
"8#	c #69694E",
"9#	c #4E4D1B",
"0#	c #494912",
"a#	c #636242",
"b#	c #7E7E77",
"c#	c #B7B7B7",
"d#	c #717171",
"e#	c #2B2B2B",
"f#	c #202020",
"g#	c #A7A7A7",
"h#	c #9A9A9A",
"i#	c #7A7A7A",
"j#	c #757575",
"k#	c #FCFCFC",
"l#	c #DFDFDF",
"m#	c #C1C1C1",
"n#	c #FDFDFD",
"o#	c #EDEDED",
"p#	c #DDDDDD",
"q#	c #C0C0C0",
"r#	c #959595",
"s#	c #7C7C7C",
"t#	c #BFBFBF",
"u#	c #909090",
"v#	c #878787",
"w#	c #A1A1A1",
"x#	c #848484",
"y#	c #8F8F8F",
"                                                                                                              . + @ ",
"  # $ % % % % % % % % % % % % % % % % % % % % % % % % % % % % % % % % % % % % % % % % % % % % % % % % % % & * = - ; ",
"  $ > , , , , , , , , , , , , , , , , , , , , , , , , , , , , , , , , , , , , , , , , , , , , , , , , , ' ) ! ~ { % ",
"  ] ^ / / / / / / / / / / / / / / / / / / / / / / / / / / / / / / / / / / / / / / / / / / / / / / / ( _ : < ) [ }   ",
"  ] ^ / / / / / / / / / / / / / / / / / / / / / / / / / / / / / / / / / / / / / / / / / / / / / / / | 1 2 ) 3 & 4   ",
"  ] ^ / / / / / ( ( ( ( ( ( ( ( ( ( ( ( ( ( ( ( ( ( ( ( ( ( ( ( ( ( ( ( ( ( ( ( ( ( ( ( ( ( ( ( ( ( 5 2 6 3 4       ",
"  ] ^ / / / 7 8 9 9 9 9 9 9 9 9 9 9 9 9 9 9 9 9 9 9 9 9 9 9 9 9 9 9 9 9 9 9 9 9 9 9 9 9 9 9 9 9 9 9 0 6 3 & a       ",
"  ] ^ / / / b c d d d d d d d d d d d d d d d d d d d d d d d d d d d d d d d d d d d d d d d d d d e f 4 g         ",
"  ] ^ / / / h i @ @ @ @ @ @ @ @ @ @ @ @ @ @ @ @ @ @ @ @ @ @ @ @ @ @ @ @ @ @ @ @ @ @ @ @ @ @ @ @ @ @ j {             ",
"  ] ^ / / / h i @ @ @ @ @ @ @ @ @ @ @ @ @ @ @ @ @ @ @ @ @ @ @ @ @ @ @ @ @ @ @ @ @ @ @ @ @ @ @ @ @ @ j {             ",
"  ] ^ / / / h i @ @ @ @ @ @ @ @ @ @ @ @ @ @ @ ) k $ l l l l l l l l l 3 m @ @ @ @ @ @ @ @ @ @ @ @ @ j {             ",
"  ] ^ / / / h i @ @ @ @ @ @ @ @ @ @ @ @ @ @ @ n o p q q q q q q q q q r - @ @ @ @ @ @ @ @ @ @ @ @ @ j {             ",
"  ] ^ / / / h i @ @ @ @ @ @ @ @ @ @ @ j s = = t u v w w w w w w w w w x y = = z > @ @ @ @ @ @ @ @ @ j {             ",
"  ] ^ / / / h i @ @ @ @ @ @ @ @ @ @ @ z A B B C D E F F F F F F F F F G H B B I ] @ @ @ @ @ @ @ @ @ j {             ",
"  ] ^ / / / h i @ @ @ @ @ @ @ @ @ m J K L M M N O P Q Q Q Q Q Q Q Q Q R S M M T U - V @ @ @ @ @ @ @ j {             ",
"  ] ^ / / / h i @ @ @ @ @ @ @ @ @ W X Y Z ` `  ...+.Q Q Q Q Q Q Q Q Q @.#.` ` $.%.&.& @ @ @ @ @ @ @ j {             ",
"  ] ^ / / / h i @ @ @ @ @ @ @ ) n *.=.-.;.Q Q Q Q Q Q Q Q Q Q Q Q Q Q Q Q Q Q >.,.'.).n 6 !.@ @ @ @ j {             ",
"  ] ^ / / / h i @ @ @ @ @ @ @ . ~.{.].^./.Q Q Q Q Q Q Q Q Q Q Q Q Q Q Q Q Q Q (._.:.<.[.}.j @ @ @ @ j {             ",
"  ] ^ / / / h i @ @ @ @ @ @ @ |.1.2.3.4.5.Q Q Q Q Q Q Q Q Q Q Q Q Q Q Q Q Q Q 6.7.8.9.0.I a.@ @ @ @ j {             ",
"  ] ^ / / / h i @ @ @ @ b.. c.d.e.f.g.Q Q Q Q Q Q Q Q Q Q Q Q Q Q Q Q Q Q Q Q Q Q P h.i.j.k.l.m.@ @ j {             ",
"  ] ^ / / / h i @ @ @ @ n.o.p.q.r.s.+.Q Q Q Q Q Q Q Q Q Q Q Q Q Q Q Q Q Q Q Q Q Q t.u.v.w.x.y.z.@ @ j {             ",
"  ] ^ / / / h i @ @ @ @ - A.B.C.D.Q Q E.F.G.G.G.G.G.G.G.G.G.G.G.G.G.G.G.G.G.G.H.(.Q Q Q I.J.B { @ @ j {             ",
"  ] ^ / / / h i @ @ @ @ - A.B.C.D.Q Q K.L.M.M.M.M.M.M.M.M.M.M.M.M.M.M.M.M.M.M.N.O.Q Q Q I.J.B { @ @ j {             ",
"  ] ^ / / / h i @ @ j s P.Q.R.` S.E.T.U.V.B.B.B.B.B.B.B.W.X.Y.Z.B.B.B.B.B.B.B.`. +.+s.Q ++@+#+$+~ > j {             ",
"  ] ^ / / / h i @ @ k %+&+*+=+@.+.-+;+>+,+B.B.B.B.B.B.B.'+)+!+~+B.B.B.B.B.B.B.{+]+^+/+Q (+_+:+<+&.{ j {             ",
"  ] ^ / / / h i @ @ { B J.I.Q [+}+|+1+2+3+B.B.B.B.B.B.B.4+5+6+7+B.B.B.B.B.B.B.8+9+0+a+b+E.6.F 0+c+d+j {             ",
"  ] ^ / / / h i @ @ { B J.I.Q e+L.L.I.f+Y.B.B.B.B.B.B.B.4+5+6+7+B.B.B.B.B.B.B.g+h+i+j+k+=+[+F 0+c+d+j {             ",
"  ] ^ / / / h i @ @ { B ,+l+m+n+o+p+.+q+r+s+t+B.B.B.u+v+w+e+x+y+3+s+B.B.B.t+u+z+A+s.L.B+C+D+#.E+c+d+j {             ",
"  ] ^ / / / h i @ @ { B F+4+G+G+G+H+D.K.I+J+K+B.B.B.L+k+M+N+O+P+Q+R+u+B.B.S+T+U+V+W+5+G+G+G+X+Y+c+d+j {             ",
"  ] ^ / / / h i @ @ { B Z+`+B+C+D+ @.@+@@@#@$@B.B.B.,.%@+.6.&@ @*@;+v+B.B.=@-@;@>@,@'@m+n+o+8+)@c+d+j {             ",
"  ] ^ / / / h i @ @ { B B+!@k+=+[+Q Q E.~@{@]@k+k+k+^@/@Q Q Q Q 7.(@_@k+k+:@<@[@}@Q Q Q e+L.|@1@c+d+j {             ",
"  ] ^ / / / h i @ @ { B 9+2@b+E.6.Q Q t.4.3@(.b+b+b+u.4@Q Q Q Q .@5@6@b+b+7@8@9@'@Q Q Q [+}+` 0@c+d+j {             ",
"  ] ^ / / / h i @ @ { B J.I.Q Q Q Q Q Q Q Q Q Q Q Q Q Q Q Q Q Q Q Q Q Q Q Q Q Q Q Q Q Q Q Q F 0+c+d+j {             ",
"  ] ^ / / / h i @ @ { B J.I.Q Q Q Q Q Q Q Q Q Q Q Q Q Q Q Q Q Q Q Q Q Q Q Q Q Q Q Q Q Q Q Q F 0+c+d+j {             ",
"  ] ^ / / / h i @ @ z a@b@c@d@e@'@Q Q Q Q +.N+f@g@t.Q Q Q Q Q Q Q Q Q s.h@x+[+Q Q Q Q Q (.F.i@j@k@l@j {             ",
"  ] ^ / / / h i @ @ ; = m@n@w+o@p@Q Q Q Q q@r@s@t@4.Q Q Q Q Q Q Q Q Q u@v@w@x@Q Q Q Q Q P+7+y@z@l@a.j {             ",
"  ] ^ / / / h i @ @ @ @ - A.B.C.D.Q Q Q Q A@B@C@)+.+v.v.v.v.v.v.v.v.v.!+>+D@h@Q Q Q Q Q I.J.B { @ @ j {             ",
"  ] ^ / / / h i @ @ @ @ - A.B.C.D.Q Q Q Q E@F@G@H@D@i.i.i.i.i.i.i.i.i.I@J@K@q@Q Q Q Q Q I.J.B { @ @ j {             ",
"  ] ^ / / / h i @ @ @ @ a.I 0.9.8.7.6.Q Q Q Q +.n+L@M@M@M@M@M@M@M@M@M@C.6@Q Q Q Q &@N@P O@P@Q@W @ @ j {             ",
"  ] ^ / / / h i @ @ @ @ j }.[.<.:._.(.Q Q Q Q t.R@I.S@S@S@S@S@S@S@S@S@T@5@Q Q Q Q W+T@U@V@W@X@- @ @ j {             ",
"  ] ^ / / / h i @ @ @ @ !.6 n ).'.,.>.Q Q Q Q Q 6.'@ @ @ @ @ @ @ @ @ @t.,@Q Q Q Q s.;+8+Y@Z@6 !.@ @ j {             ",
"  ] ^ / / / h i @ @ @ @ @ @ @ & &.%.$.`@ #Q Q Q Q Q Q Q Q Q Q Q Q Q Q Q Q Q Q .#+#@###$#%#+ @ @ @ @ j {             ",
"  ] ^ / / / h i @ @ @ @ @ @ @ V - U T X+&#Q Q Q Q Q Q Q Q Q Q Q Q Q Q Q Q Q Q *#=#-#;#! ; ) @ @ @ @ j {             ",
"  ] ^ / / / h i @ @ @ @ @ @ @ @ @ ] I >#,#F F '#@.'@Q Q Q Q Q Q Q Q Q )#!#F F ~#{#]#} @ @ @ @ @ @ @ j {             ",
"  ] ^ / / / h i @ @ @ @ @ @ @ @ @ > z ^#/#w w (#_#9@Q Q Q Q Q Q Q Q Q :#<#w w [#}#f J @ @ @ @ @ @ @ j {             ",
"  ] ^ / / / h i @ @ @ @ @ @ @ @ @ @ @ f &.q q |#1#2#3#3#3#3#3#3#3#3#3#4#5#q q 6#& @ @ @ @ @ @ @ @ @ j {             ",
"  ] ^ / / / h i @ @ @ @ @ @ @ @ @ @ @ > = l l 7#8#9#0#0#0#0#0#0#0#0#0#a#b#l l ] - @ @ @ @ @ @ @ @ @ j {             ",
"  ] ^ / / / h i @ @ @ @ @ @ @ @ @ @ @ @ @ @ @ c#d#e#f#f#f#f#f#f#f#f#f#[.g#@ @ @ @ @ @ @ @ @ @ @ @ @ j {             ",
"  ] ^ / / / h i @ @ @ @ @ @ @ @ @ @ @ @ @ @ @ 6 h#i#j#j#j#j#j#j#j#j#j#% V @ @ @ @ @ @ @ @ @ @ @ @ @ j {             ",
"  ] ^ / k#| l#m#n n n n n n n n n n n n n n n n n n n n n n n n n n n n n n n n n n n n n n n n n n > .             ",
"  ] ^ n#o#p#q#k h#h#h#h#h#h#h#h#h#h#h#h#h#h#h#h#h#h#h#h#h#h#h#h#h#h#h#h#h#h#h#h#h#h#h#h#h#h#h#h#h#h#r#*             ",
"  ] ^ | p#q#s } s#s#s#s#s#s#s#s#s#s#s#s#s#s#s#s#s#s#s#s#s#s#s#s#s#s#s#s#s#s#s#s#s#s#s#s#s#s#s#s#s#s#                ",
"  & ) p#t#s u#4                                                                                                     ",
"  v#! t#w#x## s#                                                                                                    ",
"% { ~ s y#s#                                                                                                        ",
"; - = l X@                                                                                                          ",
"@ + .                                                                                                               ",
"@ @ @ @ @ @ @ @ @ @ @ @ @ @ @ @ @ @ @ @ @ @ @ @ @ @ @ @ @ @ @ @ @ @ @ @ @ @ @ @ @ @ @ @ @ @ @ @ @ @ @ @ @ @ @ @ @ @ "};
